<svg width="120" height="120" viewBox="0 0 120 120" fill="none" xmlns="http://www.w3.org/2000/svg">
<circle cx="60" cy="60" r="60" fill="#1375ED" fill-opacity="0.1"/>
<path d="M40.64 44.08H49.52C50.08 40 53.04 36.16 59.44 36.16C65.68 36.16 68.96 39.52 68.96 44.56C68.96 50.8 63.92 53.2 55.68 53.28H53.52V60.8H55.6C65.12 60.8 70.08 63.44 70.08 71.12C70.08 76.56 66.72 80.72 59.92 80.72C53.04 80.72 49.04 76.56 48.64 71.12H39.84C40.4 82.56 48.96 88.32 60 88.32C72.16 88.32 78.72 81.28 78.72 72C78.72 63.92 74.8 58.88 68.72 57.04V56.72C73.28 55.2 77.68 50.48 77.68 43.52C77.68 35.04 71.36 28.32 59.76 28.32C49.12 28.32 41.28 34 40.64 44.08Z" fill="#1375ED"/>
</svg>
