<svg width="120" height="120" viewBox="0 0 120 120" fill="none" xmlns="http://www.w3.org/2000/svg">
<circle cx="60" cy="60" r="60" fill="#1375ED" fill-opacity="0.1"/>
<path d="M41.6531 29.52V63.2H50.2931C51.8131 58.88 55.4131 55.92 60.7731 55.92C68.3731 55.92 72.1331 60.24 72.1331 67.84C72.1331 75.04 68.6131 80.4 60.7731 80.4C54.6131 80.4 50.4531 77.2 49.2531 72.24H40.3731C41.7331 81.36 48.6931 88 60.6931 88C74.2131 88 80.8531 79.2 80.8531 67.6C80.8531 58.8 76.4531 48.16 62.1331 48.16C56.9331 48.16 52.2131 50.56 50.0531 53.44V37.52H76.8531V29.52H41.6531Z" fill="#1375ED"/>
</svg>
