<svg width="300" height="215" viewBox="0 0 300 215" fill="none" xmlns="http://www.w3.org/2000/svg">
<g filter="url(#filter0_d_740_2216)">
<path d="M26.093 13.2855L260.393 10.0051C262.708 9.96833 265.008 10.3944 267.157 11.2584C269.217 12.0891 271.097 13.3127 272.69 14.8609C274.31 16.4284 275.596 18.3061 276.474 20.3819C277.351 22.4577 277.802 24.689 277.798 26.9426V175.845C277.802 178.098 277.351 180.33 276.474 182.405C275.596 184.481 274.31 186.359 272.69 187.927C271.097 189.475 269.217 190.698 267.157 191.529C265.008 192.393 262.708 192.819 260.393 192.782L26.093 189.502C23.9292 189.473 21.7942 189.002 19.8192 188.117C17.8991 187.255 16.1628 186.032 14.7052 184.513C11.6781 181.364 9.99124 177.164 10 172.796V29.9883C9.99211 25.6215 11.6789 21.4221 14.7052 18.2741C16.1628 16.7554 17.899 15.5315 19.8192 14.6691C21.7943 13.785 23.9293 13.3142 26.093 13.2855V13.2855Z" fill="white"/>
<path d="M260.393 188.499C261.262 188.51 262.119 188.438 262.954 188.286C263.788 188.134 264.601 187.901 265.382 187.593C266.163 187.284 266.912 186.899 267.62 186.441C268.329 185.983 268.996 185.452 269.612 184.852C270.229 184.252 270.776 183.601 271.25 182.909C271.725 182.216 272.126 181.481 272.45 180.714C272.774 179.947 273.021 179.147 273.187 178.324C273.354 177.501 273.439 176.655 273.439 175.795V26.9889C273.439 26.129 273.354 25.2829 273.187 24.46C273.021 23.6371 272.774 22.8374 272.45 22.0702C272.126 21.3031 271.725 20.5685 271.25 19.8756C270.776 19.1829 270.229 18.5319 269.612 17.932C268.996 17.3323 268.329 16.8015 267.62 16.3435C266.912 15.8856 266.163 15.5004 265.382 15.1916C264.601 14.8829 263.788 14.6506 262.954 14.4984C262.119 14.3462 261.262 14.2741 260.393 14.2857L26.0931 17.4152C25.2852 17.426 24.4895 17.5172 23.7149 17.6849C22.9404 17.8525 22.187 18.0966 21.4633 18.4133C20.7397 18.73 20.0458 19.1192 19.3904 19.5772C18.735 20.0351 18.1181 20.5618 17.5482 21.1534C16.9784 21.7448 16.4727 22.3835 16.0347 23.0605C15.5967 23.7373 15.2264 24.4524 14.9272 25.1968C14.6281 25.9411 14.4002 26.7147 14.2471 27.5087C14.0939 28.3026 14.0156 29.117 14.0156 29.9428V172.842C14.0156 173.667 14.0939 174.482 14.2471 175.276C14.4002 176.07 14.6281 176.843 14.9272 177.588C15.2264 178.332 15.5967 179.047 16.0347 179.724C16.4727 180.401 16.9784 181.04 17.5482 181.631C18.1181 182.223 18.735 182.749 19.3904 183.207C20.0458 183.665 20.7397 184.054 21.4633 184.371C22.187 184.688 22.9404 184.932 23.7149 185.1C24.4895 185.267 25.2852 185.358 26.0931 185.369L260.393 188.499ZM260.393 192.783L26.0931 189.499C23.8662 189.468 21.7462 188.976 19.8191 188.114C17.8933 187.253 16.16 186.021 14.705 184.51C13.2508 182.999 12.0744 181.208 11.2617 179.225C10.4492 177.244 10 175.071 10 172.796V29.9885C10 27.7134 10.4492 25.5405 11.2617 23.5589C12.0744 21.5768 13.2508 19.7856 14.705 18.2746C16.16 16.763 17.8933 15.5315 19.8191 14.6701C21.7462 13.8081 23.8662 13.3164 26.0931 13.2852L260.393 10.0018C262.791 9.96816 265.076 10.416 267.157 11.255C269.239 12.0945 271.115 13.3257 272.691 14.8578C274.268 16.3907 275.545 18.2246 276.427 20.2685C277.31 22.3129 277.799 24.567 277.799 26.9392V175.845C277.799 178.217 277.31 180.471 276.427 182.516C275.545 184.56 274.268 186.394 272.691 187.927C271.115 189.459 269.239 190.69 267.157 191.529C265.076 192.368 262.791 192.816 260.393 192.783Z" fill="white"/>
</g>
<path d="M33.3633 76.583L47.139 76.5283V176.809L33.3633 176.644V76.583Z" fill="#1375ED" fill-opacity="0.5"/>
<path d="M53.6406 112.176L67.5055 112.199V177.049L53.6406 176.886V112.176Z" fill="#1375ED"/>
<path d="M73.2344 101.392H87.1859V177.289L73.2344 177.121V101.392Z" fill="#1375ED" fill-opacity="0.5"/>
<path d="M93.7734 137.292L107.816 137.371V177.534L93.7734 177.367V137.292Z" fill="#1375ED"/>
<path d="M113.613 85.4787L127.744 85.4434V177.773L113.613 177.604V85.4787Z" fill="#1375ED" fill-opacity="0.5"/>
<path d="M134.414 64.423L148.636 64.3389V178.023L134.414 177.853V64.423Z" fill="#1375ED"/>
<path d="M154.512 93.8059L168.824 93.7891V178.265L154.512 178.094V93.8059Z" fill="#1375ED" fill-opacity="0.5"/>
<path d="M175.582 76.023L189.989 75.9658V178.518L175.582 178.345V76.023Z" fill="#1375ED"/>
<path d="M195.938 103.937L210.435 103.942V178.762L195.938 178.589V103.937Z" fill="#1375ED" fill-opacity="0.5"/>
<path d="M217.281 75.858L231.875 75.8008V179.019L217.281 178.844V75.858Z" fill="#1375ED"/>
<path d="M237.906 58.7002L252.593 58.6035V179.265L237.906 179.09V58.7002Z" fill="#1375ED" fill-opacity="0.5"/>
<path d="M87.056 29.328C83.528 29.328 80.666 31.974 80.666 35.718C80.666 39.48 83.528 42.108 87.056 42.108C90.422 42.108 92.87 39.642 93.248 36.744V35.142H86.354V36.78H91.052C90.746 38.886 89.324 40.254 87.056 40.254C84.572 40.254 82.772 38.472 82.772 35.718C82.772 32.964 84.572 31.2 87.056 31.2C88.55 31.2 89.738 31.83 90.404 33.09H92.87C91.916 30.642 89.666 29.328 87.056 29.328ZM97.3239 36.78C97.3239 34.674 98.2599 34.044 99.7719 34.044H100.294V31.92C98.8899 31.92 97.8999 32.532 97.3239 33.522V32.082H95.2719V42H97.3239V36.78ZM111.63 37.032C111.63 33.918 109.398 31.92 106.572 31.92C103.746 31.92 101.514 33.918 101.514 37.032C101.514 40.146 103.656 42.162 106.482 42.162C109.326 42.162 111.63 40.146 111.63 37.032ZM103.602 37.032C103.602 34.782 104.988 33.702 106.536 33.702C108.066 33.702 109.524 34.782 109.524 37.032C109.524 39.282 108.012 40.38 106.482 40.38C104.934 40.38 103.602 39.282 103.602 37.032ZM115.585 42H117.745L119.743 34.674L121.741 42H123.901L126.979 32.082H124.963L122.911 40.02L120.895 32.082H118.753L116.647 40.056L114.577 32.082H112.489L115.585 42ZM128.836 39.246C128.836 41.262 129.934 42 131.698 42H133.318V40.29H132.058C131.194 40.29 130.906 39.984 130.906 39.246V33.756H133.318V32.082H130.906V29.616H128.836V32.082H127.666V33.756H128.836V39.246ZM135.209 42H137.261V36.456C137.261 34.638 138.251 33.702 139.763 33.702C141.257 33.702 142.247 34.638 142.247 36.456V42H144.281V36.15C144.281 33.378 142.553 31.92 140.339 31.92C139.061 31.92 137.945 32.406 137.261 33.234V28.68H135.209V42ZM157.281 29.328C153.753 29.328 150.891 31.974 150.891 35.718C150.891 39.48 153.753 42.108 157.281 42.108C160.647 42.108 163.095 39.642 163.473 36.744V35.142H156.579V36.78H161.277C160.971 38.886 159.549 40.254 157.281 40.254C154.797 40.254 152.997 38.472 152.997 35.718C152.997 32.964 154.797 31.2 157.281 31.2C158.775 31.2 159.963 31.83 160.629 33.09H163.095C162.141 30.642 159.891 29.328 157.281 29.328ZM167.548 36.78C167.548 34.674 168.484 34.044 169.996 34.044H170.518V31.92C169.114 31.92 168.124 32.532 167.548 33.522V32.082H165.496V42H167.548V36.78ZM171.721 36.996C171.721 40.056 173.791 42.162 176.365 42.162C178.021 42.162 179.209 41.37 179.839 40.524V42H181.909V32.082H179.839V33.522C179.227 32.712 178.075 31.92 176.401 31.92C173.791 31.92 171.721 33.936 171.721 36.996ZM179.839 37.032C179.839 39.174 178.381 40.38 176.833 40.38C175.303 40.38 173.827 39.138 173.827 36.996C173.827 34.854 175.303 33.702 176.833 33.702C178.381 33.702 179.839 34.908 179.839 37.032ZM186.656 33.54V32.082H184.604V46.716H186.656V40.56C187.304 41.334 188.474 42.162 190.112 42.162C192.722 42.162 194.774 40.056 194.774 36.996C194.774 33.936 192.722 31.92 190.112 31.92C188.492 31.92 187.286 32.712 186.656 33.54ZM192.686 36.996C192.686 39.138 191.21 40.38 189.662 40.38C188.132 40.38 186.656 39.174 186.656 37.032C186.656 34.908 188.132 33.702 189.662 33.702C191.21 33.702 192.686 34.854 192.686 36.996ZM196.803 42H198.855V36.456C198.855 34.638 199.845 33.702 201.357 33.702C202.851 33.702 203.841 34.638 203.841 36.456V42H205.875V36.15C205.875 33.378 204.147 31.92 201.933 31.92C200.655 31.92 199.539 32.406 198.855 33.234V28.68H196.803V42Z" fill="#333333"/>
<defs>
<filter id="filter0_d_740_2216" x="0" y="0" width="299.799" height="214.784" filterUnits="userSpaceOnUse" color-interpolation-filters="sRGB">
<feFlood flood-opacity="0" result="BackgroundImageFix"/>
<feColorMatrix in="SourceAlpha" type="matrix" values="0 0 0 0 0 0 0 0 0 0 0 0 0 0 0 0 0 0 127 0" result="hardAlpha"/>
<feOffset dx="6" dy="6"/>
<feGaussianBlur stdDeviation="8"/>
<feColorMatrix type="matrix" values="0 0 0 0 0 0 0 0 0 0 0 0 0 0 0 0 0 0 0.08 0"/>
<feBlend mode="normal" in2="BackgroundImageFix" result="effect1_dropShadow_740_2216"/>
<feBlend mode="normal" in="SourceGraphic" in2="effect1_dropShadow_740_2216" result="shape"/>
</filter>
</defs>
</svg>
