<svg width="262" height="139" viewBox="0 0 262 139" fill="none" xmlns="http://www.w3.org/2000/svg">
<g filter="url(#filter0_bd_740_1866)">
<path d="M227.109 10H26.4476C17.3639 10 10 17.3639 10 26.4476V103.751C10 112.835 17.3639 120.199 26.4476 120.199H227.109C236.192 120.199 243.556 112.835 243.556 103.751V26.4476C243.556 17.3639 236.192 10 227.109 10Z" fill="white"/>
</g>
<path d="M42.8975 62.7638C54.7065 62.7638 64.2795 53.1908 64.2795 41.3819C64.2795 29.573 54.7065 20 42.8975 20C31.0886 20 21.5156 29.573 21.5156 41.3819C21.5156 53.1908 31.0886 62.7638 42.8975 62.7638Z" fill="#FFB7B8"/>
<path d="M42.8975 110.764C54.7065 110.764 64.2795 101.191 64.2795 89.3819C64.2795 77.573 54.7065 68 42.8975 68C31.0886 68 21.5156 77.573 21.5156 89.3819C21.5156 101.191 31.0886 110.764 42.8975 110.764Z" fill="#F37238"/>
<path d="M83.8987 34.472H76.9867V47H83.8987V45.326H79.0387V41.492H83.3587V39.818H79.0387V36.146H83.8987V34.472ZM85.7422 41.996C85.7422 45.056 87.8122 47.162 90.4222 47.162C92.0422 47.162 93.2302 46.406 93.8602 45.506V47H95.9302V33.68H93.8602V38.468C93.1042 37.532 91.7362 36.92 90.4402 36.92C87.8122 36.92 85.7422 38.936 85.7422 41.996ZM93.8602 42.032C93.8602 44.174 92.4022 45.38 90.8542 45.38C89.3242 45.38 87.8482 44.138 87.8482 41.996C87.8482 39.854 89.3242 38.702 90.8542 38.702C92.4022 38.702 93.8602 39.908 93.8602 42.032ZM100.551 47H102.711L104.709 39.674L106.707 47H108.867L111.945 37.082H109.929L107.877 45.02L105.861 37.082H103.719L101.613 45.056L99.5434 37.082H97.4554L100.551 47ZM112.795 41.996C112.795 45.056 114.865 47.162 117.439 47.162C119.095 47.162 120.283 46.37 120.913 45.524V47H122.983V37.082H120.913V38.522C120.301 37.712 119.149 36.92 117.475 36.92C114.865 36.92 112.795 38.936 112.795 41.996ZM120.913 42.032C120.913 44.174 119.455 45.38 117.907 45.38C116.377 45.38 114.901 44.138 114.901 41.996C114.901 39.854 116.377 38.702 117.907 38.702C119.455 38.702 120.913 39.908 120.913 42.032ZM127.73 41.78C127.73 39.674 128.666 39.044 130.178 39.044H130.7V36.92C129.296 36.92 128.306 37.532 127.73 38.522V37.082H125.678V47H127.73V41.78ZM131.902 41.996C131.902 45.056 133.972 47.162 136.582 47.162C138.202 47.162 139.39 46.406 140.02 45.506V47H142.09V33.68H140.02V38.468C139.264 37.532 137.896 36.92 136.6 36.92C133.972 36.92 131.902 38.936 131.902 41.996ZM140.02 42.032C140.02 44.174 138.562 45.38 137.014 45.38C135.484 45.38 134.008 44.138 134.008 41.996C134.008 39.854 135.484 38.702 137.014 38.702C138.562 38.702 140.02 39.908 140.02 42.032ZM157.903 43.454C157.903 38.882 151.279 40.646 151.279 37.82C151.279 36.614 152.197 36.038 153.385 36.074C154.681 36.11 155.419 36.884 155.491 37.73H157.759C157.579 35.588 155.887 34.328 153.493 34.328C150.937 34.328 149.191 35.696 149.191 37.892C149.191 42.5 155.833 40.538 155.833 43.562C155.833 44.624 155.023 45.398 153.583 45.398C152.161 45.398 151.441 44.57 151.351 43.544H149.155C149.155 45.758 151.081 47.126 153.583 47.126C156.373 47.126 157.903 45.326 157.903 43.454ZM160.325 47H162.377V33.68H160.325V47ZM164.387 41.996C164.387 45.056 166.457 47.162 169.031 47.162C170.687 47.162 171.875 46.37 172.505 45.524V47H174.575V37.082H172.505V38.522C171.893 37.712 170.741 36.92 169.067 36.92C166.457 36.92 164.387 38.936 164.387 41.996ZM172.505 42.032C172.505 44.174 171.047 45.38 169.499 45.38C167.969 45.38 166.493 44.138 166.493 41.996C166.493 39.854 167.969 38.702 169.499 38.702C171.047 38.702 172.505 39.908 172.505 42.032ZM177.594 44.246C177.594 46.262 178.692 47 180.456 47H182.076V45.29H180.816C179.952 45.29 179.664 44.984 179.664 44.246V38.756H182.076V37.082H179.664V34.616H177.594V37.082H176.424V38.756H177.594V44.246ZM188.143 38.648C189.673 38.648 190.879 39.62 190.915 41.15H185.425C185.641 39.584 186.757 38.648 188.143 38.648ZM192.787 44.048H190.573C190.195 44.822 189.493 45.434 188.233 45.434C186.721 45.434 185.551 44.444 185.407 42.806H192.985C193.039 42.464 193.057 42.14 193.057 41.798C193.057 38.882 191.059 36.92 188.233 36.92C185.299 36.92 183.283 38.918 183.283 42.032C183.283 45.146 185.389 47.162 188.233 47.162C190.663 47.162 192.229 45.776 192.787 44.048Z" fill="black"/>
<path d="M85.6592 95H87.8192L83.3372 82.472H80.9612L76.4792 95H78.6212L79.5212 92.444H84.7592L85.6592 95ZM84.1832 90.77H80.0972L82.1492 84.956L84.1832 90.77ZM96.806 95H98.84V89.15C98.84 86.378 97.094 84.92 94.772 84.92C93.584 84.92 92.486 85.406 91.82 86.216V85.082H89.768V95H91.82V89.456C91.82 87.638 92.81 86.702 94.322 86.702C95.816 86.702 96.806 87.638 96.806 89.456V95ZM108.495 95H110.529V89.15C110.529 86.378 108.783 84.92 106.461 84.92C105.273 84.92 104.175 85.406 103.509 86.216V85.082H101.457V95H103.509V89.456C103.509 87.638 104.499 86.702 106.011 86.702C107.505 86.702 108.495 87.638 108.495 89.456V95ZM112.463 89.996C112.463 93.056 114.533 95.162 117.107 95.162C118.763 95.162 119.951 94.37 120.581 93.524V95H122.651V85.082H120.581V86.522C119.969 85.712 118.817 84.92 117.143 84.92C114.533 84.92 112.463 86.936 112.463 89.996ZM120.581 90.032C120.581 92.174 119.123 93.38 117.575 93.38C116.045 93.38 114.569 92.138 114.569 89.996C114.569 87.854 116.045 86.702 117.575 86.702C119.123 86.702 120.581 87.908 120.581 90.032ZM127.398 86.558V81.68H125.346V95H127.398V93.56C128.046 94.424 129.216 95.162 130.854 95.162C133.464 95.162 135.516 93.056 135.516 89.996C135.516 86.936 133.482 84.92 130.854 84.92C129.288 84.92 128.046 85.658 127.398 86.558ZM133.428 89.996C133.428 92.138 131.952 93.38 130.404 93.38C128.874 93.38 127.398 92.174 127.398 90.032C127.398 87.908 128.874 86.702 130.404 86.702C131.952 86.702 133.428 87.854 133.428 89.996ZM141.721 86.648C143.251 86.648 144.457 87.62 144.493 89.15H139.003C139.219 87.584 140.335 86.648 141.721 86.648ZM146.365 92.048H144.151C143.773 92.822 143.071 93.434 141.811 93.434C140.299 93.434 139.129 92.444 138.985 90.806H146.563C146.617 90.464 146.635 90.14 146.635 89.798C146.635 86.882 144.637 84.92 141.811 84.92C138.877 84.92 136.861 86.918 136.861 90.032C136.861 93.146 138.967 95.162 141.811 95.162C144.241 95.162 145.807 93.776 146.365 92.048ZM148.655 95H150.707V81.68H148.655V95ZM153.401 95H155.453V81.68H153.401V95ZM162.323 86.648C163.853 86.648 165.059 87.62 165.095 89.15H159.605C159.821 87.584 160.937 86.648 162.323 86.648ZM166.967 92.048H164.753C164.375 92.822 163.673 93.434 162.413 93.434C160.901 93.434 159.731 92.444 159.587 90.806H167.165C167.219 90.464 167.237 90.14 167.237 89.798C167.237 86.882 165.239 84.92 162.413 84.92C159.479 84.92 157.463 86.918 157.463 90.032C157.463 93.146 159.569 95.162 162.413 95.162C164.843 95.162 166.409 93.776 166.967 92.048ZM173.248 88.718C173.248 92.48 176.11 95.108 179.638 95.108C182.248 95.108 184.498 93.812 185.452 91.364H182.986C182.32 92.696 181.132 93.326 179.638 93.326C177.154 93.326 175.354 91.544 175.354 88.718C175.354 85.892 177.154 84.128 179.638 84.128C181.132 84.128 182.32 84.758 182.986 86.09H185.452C184.498 83.642 182.248 82.328 179.638 82.328C176.11 82.328 173.248 84.974 173.248 88.718ZM197.304 90.032C197.304 86.918 195.072 84.92 192.246 84.92C189.42 84.92 187.188 86.918 187.188 90.032C187.188 93.146 189.33 95.162 192.156 95.162C195 95.162 197.304 93.146 197.304 90.032ZM189.276 90.032C189.276 87.782 190.662 86.702 192.21 86.702C193.74 86.702 195.198 87.782 195.198 90.032C195.198 92.282 193.686 93.38 192.156 93.38C190.608 93.38 189.276 92.282 189.276 90.032ZM201.384 89.78C201.384 87.674 202.32 87.044 203.832 87.044H204.354V84.92C202.95 84.92 201.96 85.532 201.384 86.522V85.082H199.332V95H201.384V89.78ZM206.565 92.246C206.565 94.262 207.663 95 209.427 95H211.047V93.29H209.787C208.923 93.29 208.635 92.984 208.635 92.246V86.756H211.047V85.082H208.635V82.616H206.565V85.082H205.395V86.756H206.565V92.246ZM217.114 86.648C218.644 86.648 219.85 87.62 219.886 89.15H214.396C214.612 87.584 215.728 86.648 217.114 86.648ZM221.758 92.048H219.544C219.166 92.822 218.464 93.434 217.204 93.434C215.692 93.434 214.522 92.444 214.378 90.806H221.956C222.01 90.464 222.028 90.14 222.028 89.798C222.028 86.882 220.03 84.92 217.204 84.92C214.27 84.92 212.254 86.918 212.254 90.032C212.254 93.146 214.36 95.162 217.204 95.162C219.634 95.162 221.2 93.776 221.758 92.048ZM230.365 85.082H223.489V86.756H228.007L223.489 93.326V95H230.365V93.326H225.865L230.365 86.756V85.082Z" fill="black"/>
<path fill-rule="evenodd" clip-rule="evenodd" d="M37.9363 41.8632C36.941 40.7893 36.1673 39.5296 35.6592 38.1563C35.1512 36.783 34.919 35.323 34.9757 33.8598C35.5934 25.0603 47.8427 26.9962 50.2252 31.4371C52.6076 35.8779 52.3247 47.1446 49.2449 47.9382C48.0171 48.2548 45.4003 47.4793 42.7382 45.874L44.4076 57.6982H34.5391L37.9363 41.8632Z" fill="#B28B67"/>
<path fill-rule="evenodd" clip-rule="evenodd" d="M37.1831 43.8442C35.9446 38.3342 32.4133 34.5776 32.9544 32.1146C33.071 31.3748 33.4072 30.6872 33.9194 30.141C34.4316 29.5947 35.0963 29.215 35.827 29.0512C36.6318 25.7962 39.227 24.4116 43.6125 24.8974C50.1915 25.6268 54.2064 28.3588 52.472 34.3704C50.8782 34.3704 48.9538 33.7947 46.2934 34.7816C45.4491 35.0952 44.846 36.0669 44.4842 37.6969H43.2802C42.113 35.7621 40.9616 35.0513 39.8262 35.5645C38.6908 36.0776 38.4328 37.3233 39.0524 39.3014L38.4602 43.8442H37.1831Z" fill="#191847"/>
<path fill-rule="evenodd" clip-rule="evenodd" d="M52.7256 81.5174C53.9929 86.1886 55.645 96.6871 53.9592 98.3343H43.2953V98.2776C41.3618 98.0617 39.5758 97.1405 38.2789 95.6904C36.9819 94.2402 36.2651 92.3628 36.2656 90.4172V82.6951C36.2665 80.5987 37.0999 78.5886 38.5825 77.1066C40.0651 75.6245 42.0757 74.792 44.172 74.792H44.9072C46.7995 74.7922 48.629 75.4709 50.0635 76.7049C51.4981 77.9389 52.4426 79.6464 52.7256 81.5174Z" fill="#191847"/>
<path fill-rule="evenodd" clip-rule="evenodd" d="M40.4051 88.9461C39.5149 87.9861 38.8227 86.8601 38.3681 85.6325C37.9134 84.4048 37.7052 83.0996 37.7554 81.7914C38.308 73.9187 49.2621 75.6507 51.3929 79.6219C53.5237 83.5932 53.2704 93.6682 50.5162 94.3788C49.4184 94.6617 47.0787 93.9676 44.6971 92.5333L46.1913 103.108H37.3672L40.4051 88.9461Z" fill="#B28B67"/>
<path fill-rule="evenodd" clip-rule="evenodd" d="M42.7953 87.6168C43.2016 91.9844 43.042 96.9722 41.8274 98.1564H31.1603C30.5665 87.8331 36.3084 91.8307 36.3084 82.1109C36.6661 81.7614 37.0049 81.4152 37.3396 81.1167L37.3281 80.8305C39.1746 77.0503 41.5179 75.1602 44.3578 75.1602C48.6161 75.1602 49.9599 77.1413 51.1014 78.8239C50.2453 81.7598 46.9245 82.1956 43.9738 84.0254C43.7224 83.8216 43.4258 83.6811 43.1089 83.6157C42.7919 83.5503 42.4639 83.5619 42.1524 83.6495C41.8409 83.7372 41.555 83.8983 41.3186 84.1194C41.0823 84.3405 40.9025 84.615 40.7943 84.92C40.6861 85.225 40.6527 85.5515 40.6968 85.8721C40.741 86.1927 40.8614 86.498 41.0481 86.7624C41.2347 87.0268 41.482 87.2425 41.7693 87.3915C42.0566 87.5404 42.3755 87.6182 42.6991 87.6184L42.7953 87.6168Z" fill="#191847"/>
<defs>
<filter id="filter0_bd_740_1866" x="-40" y="-40" width="333.556" height="210.199" filterUnits="userSpaceOnUse" color-interpolation-filters="sRGB">
<feFlood flood-opacity="0" result="BackgroundImageFix"/>
<feGaussianBlur in="BackgroundImage" stdDeviation="25"/>
<feComposite in2="SourceAlpha" operator="in" result="effect1_backgroundBlur_740_1866"/>
<feColorMatrix in="SourceAlpha" type="matrix" values="0 0 0 0 0 0 0 0 0 0 0 0 0 0 0 0 0 0 127 0" result="hardAlpha"/>
<feOffset dx="4" dy="4"/>
<feGaussianBlur stdDeviation="7"/>
<feComposite in2="hardAlpha" operator="out"/>
<feColorMatrix type="matrix" values="0 0 0 0 0.379167 0 0 0 0 0.0426562 0 0 0 0 0.27109 0 0 0 0.1 0"/>
<feBlend mode="normal" in2="effect1_backgroundBlur_740_1866" result="effect2_dropShadow_740_1866"/>
<feBlend mode="normal" in="SourceGraphic" in2="effect2_dropShadow_740_1866" result="shape"/>
</filter>
</defs>
</svg>
