<svg width="291" height="127" viewBox="0 0 291 127" fill="none" xmlns="http://www.w3.org/2000/svg">
<g filter="url(#filter0_d_740_2978)">
<path d="M27.8152 11.4739L249.927 10.0009C252.419 9.97858 254.892 10.3576 257.204 11.1164C259.516 11.8751 261.623 12.9987 263.403 14.4228C265.177 15.837 266.587 17.527 267.548 19.3931C268.509 21.2592 269.003 23.2637 269 25.2881V89.7119C269.003 91.7363 268.509 93.7408 267.548 95.6069C266.587 97.473 265.177 99.163 263.403 100.577C261.623 102.001 259.516 103.125 257.204 103.884C254.892 104.642 252.419 105.021 249.927 104.999L27.8152 103.526C25.4217 103.512 23.057 103.098 20.8666 102.31C18.7427 101.544 16.8202 100.45 15.205 99.0875C11.8564 96.2636 9.98904 92.4844 10 88.5536V26.4494C9.98906 22.5171 11.8578 18.7366 15.2087 15.9125C16.8239 14.5502 18.7464 13.4559 20.8703 12.6896C23.0596 11.902 25.4229 11.4883 27.8152 11.4739Z" fill="white"/>
</g>
<path d="M37.8276 19.8595C38.4272 19.8544 39.0216 19.9724 39.5737 20.2061C40.1081 20.4332 40.5929 20.7625 41.0007 21.1755C41.4116 21.5913 41.7383 22.0825 41.9628 22.6221C42.3112 23.4607 42.4057 24.383 42.2347 25.2747C42.0637 26.1665 41.6347 26.9886 41.0007 27.6393C40.5933 28.0575 40.1087 28.3929 39.5737 28.6272C38.7543 28.9861 37.845 29.0874 36.9666 28.9175C36.0882 28.7477 35.2823 28.3148 34.6563 27.6764C34.2468 27.2604 33.9214 26.7696 33.6978 26.2307C33.3502 25.3928 33.2559 24.4716 33.4266 23.5808C33.5972 22.69 34.0254 21.8686 34.6581 21.2181C35.0647 20.8002 35.5483 20.4648 36.0823 20.2302C36.6327 19.9892 37.2266 19.8631 37.8276 19.8595Z" fill="#F37238"/>
<path d="M202.166 18.716C203.087 18.7076 203.99 18.9717 204.761 19.475C205.532 19.9783 206.136 20.6984 206.498 21.5443C206.742 22.1207 206.868 22.7401 206.868 23.3658C206.868 23.9916 206.742 24.6109 206.498 25.1873C206.137 26.038 205.534 26.7644 204.764 27.2767C203.994 27.7889 203.091 28.0645 202.166 28.0693C201.246 28.0762 200.345 27.8111 199.575 27.3075C198.806 26.8039 198.202 26.0843 197.841 25.2392C197.598 24.6635 197.473 24.0449 197.473 23.42C197.473 22.7951 197.598 22.1766 197.841 21.6009C198.201 20.7508 198.803 20.0245 199.571 19.5119C200.34 18.9992 201.242 18.7225 202.166 18.716Z" fill="#F37238"/>
<path d="M55.8205 19.7326C56.4232 19.7274 57.0207 19.8457 57.5759 20.0801C58.1126 20.3077 58.5996 20.6379 59.0094 21.0522C59.4224 21.4689 59.751 21.9614 59.9771 22.5025C60.327 23.3434 60.4219 24.2685 60.2499 25.1628C60.0778 26.0572 59.6464 26.8813 59.0094 27.5327C58.5998 27.9518 58.1131 28.2879 57.5759 28.5225C56.7526 28.8824 55.8392 28.984 54.9568 28.8138C54.0743 28.6437 53.2644 28.2099 52.6343 27.5698C52.2224 27.1532 51.8947 26.661 51.6694 26.1204C51.3193 25.2799 51.2241 24.3551 51.3956 23.461C51.5672 22.5669 51.9979 21.7429 52.6343 21.0911C53.0438 20.6732 53.5303 20.3381 54.0669 20.1042C54.6201 19.8626 55.2167 19.7362 55.8205 19.7326Z" fill="#F37238"/>
<path d="M221.017 18.5852C221.636 18.5794 222.249 18.6957 222.822 18.9274C223.395 19.1591 223.917 19.5017 224.357 19.9354C225.022 20.5917 225.475 21.4323 225.656 22.3484C225.837 23.2645 225.738 24.2137 225.372 25.0731C224.881 26.2237 223.955 27.1346 222.796 27.6085C221.637 28.0824 220.337 28.0811 219.179 27.6049C218.05 27.1373 217.149 26.2473 216.668 25.125C216.423 24.548 216.297 23.9278 216.297 23.3012C216.297 22.6746 216.423 22.0544 216.668 21.4774C217.031 20.6241 217.636 19.8956 218.409 19.3817C219.182 18.8678 220.089 18.5909 221.017 18.5852Z" fill="#F37238"/>
<path d="M73.8974 19.6066C74.5026 19.6016 75.1025 19.7202 75.6602 19.955C76.1998 20.1831 76.6896 20.5142 77.1021 20.9299C77.517 21.3475 77.8471 21.8412 78.0744 22.384C78.4261 23.2271 78.5214 24.1549 78.3485 25.0518C78.1756 25.9486 77.7421 26.7748 77.1021 27.4271C76.6902 27.8475 76.2009 28.1845 75.6612 28.4196C74.8336 28.7805 73.916 28.8823 73.0294 28.7118C72.1428 28.5412 71.3287 28.1062 70.6945 27.4642C70.2804 27.0468 69.9509 26.5534 69.724 26.0111C69.3734 25.1689 69.2785 24.2423 69.4511 23.3466C69.6236 22.4509 70.0561 21.6256 70.6945 20.9735C71.1058 20.553 71.5944 20.2157 72.1336 19.9801C72.6901 19.7374 73.2902 19.6103 73.8974 19.6066Z" fill="#F37238"/>
<path d="M239.962 18.4543C240.584 18.4485 241.201 18.5654 241.777 18.7982C242.354 19.031 242.879 19.3752 243.322 19.811C243.99 20.4678 244.445 21.3103 244.627 22.2288C244.809 23.1473 244.71 24.0993 244.342 24.9608C243.845 26.1153 242.913 27.0282 241.748 27.5027C240.583 27.9772 239.278 27.9752 238.114 27.4972C236.979 27.0296 236.073 26.1372 235.588 25.0108C235.342 24.4324 235.215 23.8104 235.215 23.1819C235.215 22.5535 235.342 21.9315 235.588 21.3531C235.955 20.4967 236.564 19.7662 237.342 19.2512C238.119 18.7362 239.03 18.4593 239.962 18.4543Z" fill="#F37238"/>
<rect x="33" y="41" width="45" height="45" rx="6" fill="#F37238"/>
<rect x="88" y="41" width="157" height="9" fill="#F37238" fill-opacity="0.15"/>
<rect x="88" y="53" width="157" height="9" fill="#F37238" fill-opacity="0.15"/>
<rect x="88" y="65" width="157" height="9" fill="#F37238" fill-opacity="0.15"/>
<rect x="88" y="77" width="157" height="9" fill="#F37238" fill-opacity="0.15"/>
<path fill-rule="evenodd" clip-rule="evenodd" d="M51.0379 65.0605C50.0426 63.9865 49.2688 62.7268 48.7608 61.3535C48.2528 59.9802 48.0205 58.5202 48.0773 57.0571C48.6949 48.2576 60.9443 50.1935 63.3267 54.6344C65.7092 59.0752 65.4263 70.3418 62.3465 71.1354C61.1186 71.4521 58.5018 70.6765 55.8398 69.0713L57.5092 80.8955H47.6406L51.0379 65.0605Z" fill="#EEC7A3"/>
<path fill-rule="evenodd" clip-rule="evenodd" d="M50.2846 67.0415C49.0461 61.5315 45.5148 57.7749 46.056 55.3118C46.1725 54.5721 46.5087 53.8845 47.021 53.3382C47.5332 52.792 48.1978 52.4123 48.9285 52.2485C49.7334 48.9935 52.3285 47.6089 56.714 48.0946C63.2931 48.8241 67.3079 51.556 65.5735 57.5676C63.9798 57.5676 62.0554 56.992 59.395 57.9788C58.5507 58.2924 57.9476 59.2642 57.5857 60.8942H56.3818C55.2145 58.9594 54.0632 58.2486 52.9278 58.7617C51.7923 59.2749 51.5344 60.5205 52.1539 62.4986L51.5618 67.0415H50.2846Z" fill="#191847"/>
<g clip-path="url(#clip0_740_2978)">
<path d="M218.75 65C217.755 65 216.802 65.3951 216.098 66.0983C215.395 66.8016 215 67.7554 215 68.75V91.25C215 92.2446 215.395 93.1984 216.098 93.9016C216.802 94.6049 217.755 95 218.75 95H241.25C242.245 95 243.198 94.6049 243.902 93.9016C244.605 93.1984 245 92.2446 245 91.25V68.75C245 67.7554 244.605 66.8016 243.902 66.0983C243.198 65.3951 242.245 65 241.25 65H218.75ZM237.556 74.3187C237.817 74.5789 237.965 74.9308 237.969 75.2989C237.972 75.667 237.832 76.0219 237.577 76.2875L230.092 85.6438C229.963 85.7823 229.808 85.8935 229.635 85.9707C229.463 86.0479 229.276 86.0895 229.087 86.093C228.898 86.0965 228.711 86.0618 228.535 85.9911C228.36 85.9203 228.201 85.815 228.067 85.6812L223.108 80.72C222.969 80.5913 222.859 80.436 222.782 80.2635C222.705 80.091 222.663 79.9048 222.66 79.716C222.657 79.5272 222.692 79.3396 222.762 79.1645C222.833 78.9894 222.938 78.8303 223.072 78.6968C223.205 78.5633 223.364 78.458 223.54 78.3873C223.715 78.3165 223.902 78.2818 224.091 78.2851C224.28 78.2885 224.466 78.3298 224.639 78.4067C224.811 78.4835 224.966 78.5943 225.095 78.7325L229.021 82.6569L235.533 74.36C235.662 74.2212 235.817 74.1097 235.989 74.0322C236.161 73.9547 236.348 73.9127 236.537 73.9089C236.726 73.905 236.914 73.9394 237.089 74.0098C237.265 74.0802 237.424 74.1853 237.558 74.3187H237.556Z" fill="#F37238"/>
</g>
<defs>
<filter id="filter0_d_740_2978" x="0" y="0" width="291" height="127" filterUnits="userSpaceOnUse" color-interpolation-filters="sRGB">
<feFlood flood-opacity="0" result="BackgroundImageFix"/>
<feColorMatrix in="SourceAlpha" type="matrix" values="0 0 0 0 0 0 0 0 0 0 0 0 0 0 0 0 0 0 127 0" result="hardAlpha"/>
<feOffset dx="6" dy="6"/>
<feGaussianBlur stdDeviation="8"/>
<feComposite in2="hardAlpha" operator="out"/>
<feColorMatrix type="matrix" values="0 0 0 0 0 0 0 0 0 0 0 0 0 0 0 0 0 0 0.08 0"/>
<feBlend mode="normal" in2="BackgroundImageFix" result="effect1_dropShadow_740_2978"/>
<feBlend mode="normal" in="SourceGraphic" in2="effect1_dropShadow_740_2978" result="shape"/>
</filter>
<clipPath id="clip0_740_2978">
<rect width="30" height="30" fill="white" transform="translate(215 65)"/>
</clipPath>
</defs>
</svg>
