<svg width="325" height="168" viewBox="0 0 325 168" fill="none" xmlns="http://www.w3.org/2000/svg">
<g filter="url(#filter0_d_740_2904)">
<path d="M25.8047 2.48235L297.655 0.00157367C300.706 -0.0360795 303.732 0.602303 306.562 1.88021C309.393 3.15811 311.971 5.05046 314.15 7.44901C316.321 9.83076 318.046 12.6771 319.223 15.82C320.399 18.9629 321.003 22.3388 321 25.7484V134.252C321.003 137.661 320.399 141.037 319.223 144.18C318.046 147.323 316.321 150.169 314.15 152.551C311.971 154.95 309.393 156.842 306.562 158.12C303.732 159.398 300.706 160.036 297.655 159.998L25.8047 157.518C22.8752 157.494 19.981 156.797 17.3001 155.47C14.7005 154.18 12.3475 152.336 10.3706 150.042C6.27211 145.286 3.98658 138.921 4.00006 132.301V27.7042C3.98662 21.0815 6.27389 14.7143 10.3751 9.95782C12.352 7.66358 14.705 5.82046 17.3046 4.52992C19.9841 3.20333 22.8767 2.50653 25.8047 2.48235Z" fill="white"/>
</g>
<g clip-path="url(#clip0_740_2904)">
<path opacity="0.42" d="M83.819 151.917H115.682C133.066 148.858 145.969 144.89 157.295 151.669L157.752 151.917H230.108C248.528 151.917 267.862 136.169 272.633 119.429C287.735 66.5622 249.317 42.5884 212.973 52.1366C189.034 58.4194 181.939 18.036 144.475 8.28114C144.475 8.28114 122.777 1.33701 107.924 19.648C94.5645 36.099 114.852 64.9915 91.7018 72.721C77.2223 77.5157 47.1432 78.9211 45.2347 111.658C43.99 132.449 60.9589 150.47 83.819 151.917Z" fill="#EAEAE8"/>
<path d="M254.9 51.3692L225.656 44.5356C222.287 43.7485 218.916 45.8309 218.126 49.1869L211.27 78.31C210.48 81.666 212.57 85.0247 215.938 85.8118L245.183 92.6454C248.551 93.4326 251.922 91.3501 252.712 87.9941L259.569 58.871C260.359 55.515 258.268 52.1563 254.9 51.3692Z" fill="#EAEAE8"/>
<path d="M234.588 72.1839C233.535 71.9377 232.621 71.2873 232.047 70.374C231.472 69.4608 231.282 68.3584 231.518 67.3065L234.09 56.4769C234.207 55.9555 234.428 55.4625 234.739 55.0271C235.049 54.5917 235.445 54.2226 235.901 53.9415C236.357 53.6604 236.865 53.473 237.394 53.3902C237.924 53.3074 238.465 53.331 238.986 53.4595C239.509 53.576 240.004 53.7956 240.441 54.1053C240.878 54.4151 241.249 54.8087 241.531 55.2631C241.813 55.7175 242.001 56.2235 242.084 56.7514C242.167 57.2792 242.144 57.8183 242.015 58.337L239.484 69.1665C239.367 69.688 239.147 70.1809 238.836 70.6163C238.525 71.0517 238.13 71.4208 237.674 71.7019C237.217 71.983 236.71 72.1704 236.18 72.2532C235.65 72.336 235.109 72.3124 234.588 72.1839Z" fill="#F37238"/>
<path d="M228.116 67.6367C228.116 67.6367 227.785 73.6715 233.883 75.1182C239.982 76.5649 242.43 70.9848 242.43 70.9848" stroke="#F37238" stroke-width="5" stroke-linecap="round" stroke-linejoin="round"/>
<path d="M227.867 82.8887L231.85 83.8394L235.791 84.7487" stroke="#F37238" stroke-width="5" stroke-linecap="round" stroke-linejoin="round"/>
<path d="M233.883 75.1182L231.85 83.8397" stroke="#F37238" stroke-width="5" stroke-linecap="round" stroke-linejoin="round"/>
<path d="M117.757 20.1855H87.7189C84.2589 20.1855 81.4541 22.9799 81.4541 26.427V56.3405C81.4541 59.7875 84.2589 62.5819 87.7189 62.5819H117.757C121.216 62.5819 124.021 59.7875 124.021 56.3405V26.427C124.021 22.9799 121.216 20.1855 117.757 20.1855Z" fill="#EAEAE8"/>
<path d="M108.422 34.2803H91.3287C90.733 34.2803 90.25 34.7614 90.25 35.355V47.3832C90.25 47.9767 90.733 48.4579 91.3287 48.4579H108.422C109.018 48.4579 109.501 47.9767 109.501 47.3832V35.355C109.501 34.7614 109.018 34.2803 108.422 34.2803Z" fill="#F37238"/>
<path d="M117.923 34.7349L112.073 37.9176C111.906 38.0234 111.768 38.1701 111.674 38.3437C111.579 38.5174 111.531 38.7122 111.534 38.9097V43.8697C111.525 44.0626 111.572 44.2538 111.667 44.4219C111.762 44.5899 111.903 44.728 112.073 44.8204L117.923 48.0445C118.088 48.1397 118.276 48.1894 118.467 48.1886C118.658 48.1877 118.846 48.1363 119.01 48.0396C119.175 47.9429 119.311 47.8044 119.404 47.6382C119.497 47.472 119.544 47.2841 119.541 47.0938V35.6856C119.544 35.4953 119.497 35.3074 119.404 35.1412C119.311 34.975 119.175 34.8365 119.01 34.7398C118.846 34.6431 118.658 34.5917 118.467 34.5908C118.276 34.59 118.088 34.6397 117.923 34.7349Z" fill="#F37238"/>
<path d="M233.178 52.4257C231.021 52.4257 228.953 51.5722 227.428 50.0528C225.903 48.5335 225.046 46.4729 225.046 44.3242C225.046 46.4729 224.19 48.5335 222.665 50.0528C221.14 51.5722 219.071 52.4257 216.915 52.4257C217.98 52.4203 219.037 52.6247 220.023 53.0273C221.01 53.43 221.906 54.0228 222.662 54.7718C223.418 55.5208 224.017 56.4112 224.427 57.3918C224.836 58.3724 225.046 59.4239 225.046 60.4858C225.046 59.4239 225.257 58.3724 225.666 57.3918C226.075 56.4112 226.675 55.5208 227.431 54.7718C228.186 54.0228 229.083 53.43 230.069 53.0273C231.056 52.6247 232.112 52.4203 233.178 52.4257Z" fill="#FF9A60"/>
<path d="M217.122 49.2019C216.216 49.202 215.346 48.8462 214.702 48.2117C214.057 47.5772 213.689 46.7152 213.678 45.8125C213.678 46.7114 213.32 47.5735 212.682 48.2092C212.044 48.8448 211.179 49.2019 210.276 49.2019C211.182 49.2128 212.048 49.579 212.685 50.2212C213.321 50.8634 213.678 51.7299 213.678 52.6326C213.678 51.7227 214.041 50.8501 214.687 50.2067C215.333 49.5633 216.209 49.2019 217.122 49.2019Z" fill="#FF9A60"/>
<path d="M32 151.586L64.7344 151.421L97.5104 151.297L162.979 151.173L228.49 151.297L261.224 151.421L294 151.586L261.224 151.793L228.49 151.917L162.979 152L97.5104 151.917L64.7344 151.793L32 151.586Z" fill="#283034"/>
<path d="M266.617 118.767C266.791 118.726 266.945 118.629 267.055 118.49C267.166 118.351 267.226 118.179 267.226 118.002C267.226 117.825 267.166 117.653 267.055 117.514C266.945 117.375 266.791 117.278 266.617 117.237C266.444 117.278 266.29 117.375 266.179 117.514C266.069 117.653 266.009 117.825 266.009 118.002C266.009 118.179 266.069 118.351 266.179 118.49C266.29 118.629 266.444 118.726 266.617 118.767Z" fill="#283034"/>
<path d="M131.531 20.9294C131.729 20.9294 131.919 20.851 132.059 20.7115C132.199 20.572 132.278 20.3827 132.278 20.1854C132.278 19.9881 132.199 19.7989 132.059 19.6593C131.919 19.5198 131.729 19.4414 131.531 19.4414C130.577 19.4414 130.535 20.9294 131.531 20.9294Z" fill="#283034"/>
<path d="M65.4812 102.316C65.4284 102.316 65.3762 102.305 65.328 102.284C65.2798 102.263 65.2366 102.232 65.2013 102.193C65.166 102.154 65.1395 102.108 65.1233 102.058C65.1072 102.008 65.1019 101.955 65.1078 101.902V99.2571C65.1073 99.1543 65.1452 99.0549 65.2143 98.9785C65.2833 98.9021 65.3785 98.854 65.4812 98.8438C65.5912 98.8438 65.6967 98.8873 65.7745 98.9648C65.8524 99.0423 65.8961 99.1475 65.8961 99.2571V101.902C65.9027 101.958 65.8966 102.015 65.8781 102.068C65.8596 102.121 65.8293 102.17 65.7893 102.209C65.7494 102.249 65.7009 102.28 65.6475 102.298C65.5941 102.316 65.5373 102.322 65.4812 102.316Z" fill="#283034"/>
<path d="M66.8088 100.994H64.1535C64.1008 100.994 64.0486 100.983 64.0004 100.962C63.9521 100.941 63.909 100.91 63.8737 100.871C63.8384 100.831 63.8118 100.785 63.7957 100.735C63.7796 100.685 63.7743 100.633 63.7801 100.58C63.7796 100.478 63.8176 100.378 63.8866 100.302C63.9557 100.225 64.0508 100.177 64.1535 100.167H66.8088C66.9188 100.167 67.0244 100.211 67.1022 100.288C67.18 100.366 67.2237 100.471 67.2237 100.58C67.2304 100.636 67.2242 100.693 67.2057 100.746C67.1872 100.799 67.1569 100.848 67.1169 100.887C67.077 100.927 67.0285 100.957 66.9751 100.976C66.9218 100.994 66.8649 101 66.8088 100.994Z" fill="#283034"/>
<path d="M206.127 36.3054C206.075 36.3112 206.022 36.306 205.972 36.2899C205.922 36.2738 205.875 36.2474 205.836 36.2122C205.797 36.1771 205.766 36.1341 205.744 36.086C205.723 36.0379 205.712 35.9859 205.713 35.9334V33.288C205.706 33.2321 205.712 33.1755 205.731 33.1223C205.749 33.0691 205.779 33.0208 205.819 32.981C205.859 32.9412 205.908 32.911 205.961 32.8926C206.014 32.8741 206.071 32.868 206.127 32.8747C206.237 32.8747 206.343 32.9182 206.421 32.9957C206.499 33.0733 206.542 33.1784 206.542 33.288V35.9334C206.532 36.0357 206.484 36.1305 206.407 36.1993C206.33 36.2681 206.231 36.3059 206.127 36.3054Z" fill="#283034"/>
<path d="M207.455 34.9833H204.8C204.747 34.9891 204.694 34.9838 204.644 34.9678C204.594 34.9517 204.548 34.9252 204.509 34.8901C204.469 34.8549 204.438 34.8119 204.417 34.7639C204.395 34.7158 204.385 34.6638 204.385 34.6113C204.378 34.5554 204.384 34.4987 204.403 34.4455C204.421 34.3924 204.452 34.3441 204.492 34.3043C204.532 34.2645 204.58 34.2342 204.633 34.2158C204.687 34.1974 204.744 34.1913 204.8 34.1979H207.455C207.565 34.1979 207.671 34.2415 207.748 34.319C207.826 34.3965 207.87 34.5016 207.87 34.6113C207.86 34.7136 207.811 34.8084 207.735 34.8772C207.658 34.9459 207.558 34.9838 207.455 34.9833Z" fill="#283034"/>
<path d="M84.0682 115.46C84.0682 115.46 76.0609 113.063 73.6131 106.45C71.1652 99.8361 73.4886 91.28 68.2196 86.1545C62.9505 81.0291 67.7632 75.4903 72.5344 75.697C77.3055 75.9037 83.4458 84.0052 87.0968 95.8681C89.6276 104.094 88.5489 110.335 84.0682 115.46Z" fill="#FF9A60"/>
<path d="M96.0581 112.029C99.5184 109.97 102.201 106.832 103.692 103.101C106.223 96.8598 104.19 91.0317 110.206 88.469C116.221 85.9063 117.134 79.5822 113.151 76.9368C109.168 74.2914 101.12 75.6968 94.6474 86.0716C89.4614 94.3798 86.6817 104.052 96.0581 112.029Z" fill="#FF9A60"/>
<path d="M87.636 101.242C87.636 101.242 82.5744 96.5709 83.7361 87.6427C84.8977 78.7145 78.6745 60.6102 88.3828 59.1635C98.0911 57.7168 98.5475 68.257 98.5475 72.8864C98.5475 77.5158 99.0868 97.9349 87.636 101.242Z" fill="#F37238"/>
<path d="M70.4185 78.9209C72.1917 80.3573 73.7311 82.0583 74.9822 83.9637C76.2334 85.8513 77.1981 87.9127 77.8449 90.0811C78.0109 90.6184 78.1353 91.1971 78.2598 91.7345C78.3484 92.0048 78.4177 92.2811 78.4672 92.5611L78.5917 93.4292L78.7162 94.2558L78.7991 95.0825C78.8406 95.6612 78.9236 96.1985 79.0066 96.7772C79.3385 98.9679 79.7534 101.2 80.2927 103.391C81.3175 107.762 82.7625 112.026 84.6075 116.122C85.5073 118.176 86.5758 120.153 87.8021 122.032C88.3811 122.987 89.0477 123.887 89.7936 124.719C90.5112 125.555 91.3503 126.28 92.2829 126.868L92.1169 127.24C91.1069 126.658 90.208 125.902 89.4617 125.008C88.7115 124.145 88.0185 123.234 87.3873 122.28C86.1691 120.382 85.101 118.392 84.1926 116.328C82.347 112.19 80.9021 107.885 79.8778 103.473C79.3385 101.283 78.9236 99.0506 78.5917 96.8186C78.5087 96.2399 78.4257 95.7025 78.3843 95.1239C78.3428 94.5452 78.2598 94.0078 78.1768 93.4705L78.0523 92.6438C78.0211 92.364 77.9656 92.0874 77.8864 91.8171C77.7619 91.2798 77.6789 90.7011 77.513 90.2051C76.2693 85.8499 73.8089 81.9365 70.4185 78.9209Z" fill="#263138"/>
<path d="M90.3745 67.5957C90.6649 70.0344 90.8723 72.4318 90.9968 74.9118C91.1213 77.3919 91.1628 79.7893 91.0798 82.228C90.9352 87.1344 90.2677 92.0117 89.0883 96.7776C88.7979 97.9763 88.5075 99.1336 88.1756 100.332C87.9582 100.899 87.778 101.479 87.6362 102.068C87.4703 102.647 87.3043 103.226 87.1799 103.846C86.6263 106.205 86.3204 108.615 86.2671 111.038C86.1012 115.874 86.9724 120.793 89.1713 125.133L88.8394 125.298C86.5873 120.892 85.529 115.976 85.7693 111.038C85.8569 108.575 86.1764 106.125 86.7235 103.722C86.8479 103.143 87.0139 102.523 87.1799 101.944C87.3458 101.366 87.5533 100.787 87.7192 100.208C87.8852 99.6296 88.383 97.8523 88.6734 96.6536C89.2535 94.2951 89.7104 91.9083 90.0426 89.5028C90.3745 87.0641 90.5819 84.6667 90.7064 82.228C90.8861 77.3483 90.7752 72.4623 90.3745 67.5957Z" fill="#263138"/>
<path d="M109.459 80.3672C108.53 81.0137 107.644 81.7178 106.804 82.4752C105.974 83.2606 105.144 84.0459 104.397 84.8726C102.886 86.5323 101.64 88.4145 100.705 90.4527C99.7921 92.4781 99.4187 94.7101 99.2113 96.9422C99.0038 99.1742 98.9209 101.448 98.6719 103.721C98.423 105.994 98.0496 108.226 97.1369 110.334C97.0516 110.606 96.9405 110.869 96.8049 111.12L96.3901 111.905L95.6018 113.393L94.855 114.881L94.2327 116.452C93.4862 118.565 92.9851 120.756 92.7391 122.983C92.4555 125.194 92.4834 127.434 92.822 129.637L92.4072 129.72C92.0547 127.463 92.0129 125.168 92.2827 122.9C92.4934 120.641 92.9954 118.418 93.7763 116.287C93.9837 115.749 94.1912 115.212 94.4401 114.674C94.689 114.137 94.8965 113.641 95.1454 113.145L95.9752 111.657L96.3486 110.913C96.4934 110.682 96.6051 110.431 96.6805 110.169C97.5027 108.076 98.0197 105.877 98.2156 103.638C98.4645 101.406 98.5475 99.1742 98.7964 96.9008C98.9014 95.7766 99.0676 94.659 99.2943 93.5528C99.3772 93.2634 99.4187 92.9741 99.5017 92.7261L99.7506 91.8994C99.8102 91.6122 99.9079 91.3342 100.041 91.0727C100.116 90.7973 100.227 90.5331 100.373 90.2874C100.594 89.7706 100.858 89.2729 101.161 88.7993L101.576 88.0553L102.074 87.3526C102.382 86.8813 102.715 86.426 103.07 85.9886C103.424 85.5333 103.813 85.105 104.231 84.7073C105.769 83.0316 107.527 81.5716 109.459 80.3672Z" fill="#263138"/>
<path d="M80.5415 123.686H101.369V145.923C101.369 147.294 100.822 148.608 99.8498 149.577C98.8772 150.546 97.5581 151.09 96.1827 151.09H85.7276C84.3521 151.09 83.033 150.546 82.0605 149.577C81.0879 148.608 80.5415 147.294 80.5415 145.923V123.686Z" fill="#F37238"/>
<path d="M101.369 127.943H80.5415V131.461H101.369V127.943Z" fill="#FF9A60"/>
<path d="M77.9277 117.196C73.8036 113.733 68.5346 111.921 63.1445 112.112C57.7544 112.303 52.628 114.484 48.7612 118.23L51.458 120.792C54.646 117.75 58.8428 115.978 63.2541 115.81C67.6655 115.642 71.9855 117.091 75.3969 119.883L77.9277 117.196Z" fill="#F37238"/>
<path d="M73.1149 122.281C70.2557 120.297 66.8252 119.297 63.3436 119.431C59.8621 119.565 56.5195 120.827 53.8228 123.025L56.561 125.588C58.5973 124.053 61.0619 123.186 63.614 123.108C66.0595 123.061 68.4661 123.721 70.5426 125.009L73.1149 122.281Z" fill="#F37238"/>
<path d="M67.8874 127.819C66.5207 127.164 65.0166 126.845 63.5009 126.889C61.9851 126.932 60.5018 127.336 59.1748 128.067L60.9173 129.679L63.6556 132.241L67.8874 127.819Z" fill="#F37238"/>
<path d="M274.251 127.282H209.488V139.298H274.251V127.282Z" fill="#FFB87E"/>
<path d="M258.901 115.295H211.562V127.311H258.901V115.295Z" fill="#FF9A60"/>
<path d="M258.901 117.444H213.803V125.128H258.901V117.444Z" fill="#EAEAE8"/>
<path d="M266.659 139.311H201.896V151.326H266.659V139.311Z" fill="#F37238"/>
<path d="M211.562 140.178H204.966V150.453H211.562V140.178Z" fill="#FFB87E"/>
<path d="M263.547 140.178H256.951V150.453H263.547V140.178Z" fill="#FFB87E"/>
<path opacity="0.5" d="M272.136 128.729H211.562V137.839H272.136V128.729Z" fill="#F37238"/>
<path d="M233.8 96.9844C233.8 96.9844 236.87 100.952 234.838 104.218" stroke="#263138" stroke-miterlimit="10"/>
<path d="M235.335 100.125C235.335 100.125 236.041 95.2893 240.522 94.752C240.522 94.752 241.766 99.7947 235.335 100.125Z" fill="#263138"/>
<path d="M240.77 101.614C239.835 101.225 238.803 101.127 237.811 101.334C236.818 101.54 235.912 102.041 235.211 102.771C234.523 102.035 233.624 101.529 232.636 101.321C231.648 101.114 230.62 101.216 229.693 101.614C225.42 103.35 226.083 110.129 227.95 112.609C229.817 115.089 231.892 115.833 234.879 114.882C234.982 114.833 235.099 114.819 235.211 114.841C235.337 114.816 235.467 114.83 235.584 114.882C238.571 115.833 240.812 114.799 242.513 112.609C244.214 110.418 245.044 103.35 240.77 101.614Z" fill="#F37238"/>
<path d="M139.04 22.0869H186.918C189.911 22.0869 192.781 23.2714 194.898 25.3799C197.014 27.4883 198.203 30.348 198.203 33.3298V142.286C198.203 144.687 197.246 146.99 195.542 148.687C193.838 150.385 191.527 151.339 189.117 151.339H136.841C134.432 151.339 132.121 150.385 130.417 148.687C128.713 146.99 127.755 144.687 127.755 142.286V33.2885C127.766 30.3138 128.96 27.4648 131.075 25.3652C133.19 23.2657 136.054 22.0869 139.04 22.0869Z" fill="#455862"/>
<path d="M187.665 25.7656H182.728C182.375 25.7656 182.038 25.905 181.789 26.153C181.54 26.4011 181.4 26.7375 181.4 27.0883C181.4 27.7288 181.273 28.3631 181.027 28.9548C180.781 29.5466 180.421 30.0843 179.966 30.5372C179.511 30.9901 178.972 31.3494 178.378 31.5945C177.784 31.8396 177.147 31.9657 176.504 31.9657H149.454C148.155 31.9657 146.91 31.4519 145.992 30.5372C145.074 29.6225 144.558 28.3819 144.558 27.0883C144.564 26.9166 144.535 26.7455 144.472 26.5853C144.41 26.425 144.316 26.2788 144.196 26.1554C144.076 26.032 143.933 25.9339 143.774 25.867C143.615 25.8 143.444 25.7655 143.272 25.7656H138.335C136.534 25.7765 134.809 26.4941 133.536 27.7631C132.262 29.032 131.542 30.7499 131.531 32.5444V140.881C131.542 142.672 132.263 144.385 133.538 145.648C134.813 146.91 136.537 147.619 138.335 147.619H187.665C189.458 147.619 191.178 146.909 192.447 145.645C193.715 144.382 194.427 142.668 194.427 140.881V32.5444C194.427 30.7537 193.716 29.0357 192.449 27.7656C191.182 26.4956 189.462 25.7765 187.665 25.7656Z" fill="#EAEAE8"/>
<g style="mix-blend-mode:multiply">
<path d="M191.316 37.835H133.688V43.3531H191.316V37.835Z" fill="#EAEAE8"/>
</g>
<g style="mix-blend-mode:multiply">
<path d="M191.316 46.1016H133.688V57.084H191.316V46.1016Z" fill="#EAEAE8"/>
</g>
<g style="mix-blend-mode:multiply">
<path d="M191.316 129.927H133.688V140.909H191.316V129.927Z" fill="#EAEAE8"/>
</g>
<path d="M175.924 29.031H149.662C149.232 29.031 148.821 28.8612 148.517 28.5589C148.214 28.2566 148.044 27.8465 148.044 27.419C148.038 27.2038 148.076 26.9898 148.155 26.7894C148.233 26.589 148.352 26.4064 148.502 26.2523C148.653 26.0982 148.834 25.9757 149.033 25.8922C149.232 25.8086 149.446 25.7656 149.662 25.7656H175.924C176.357 25.7764 176.768 25.9554 177.071 26.2643C177.373 26.5732 177.542 26.9876 177.542 27.419C177.531 27.8432 177.357 28.2472 177.056 28.5473C176.755 28.8473 176.35 29.0205 175.924 29.031Z" fill="#263138"/>
<path d="M219.902 56.0215H106.14V124.905H219.902V56.0215Z" fill="#FFB87E"/>
<path opacity="0.42" d="M109.542 67.5959V114.014C111.72 114.008 113.82 114.822 115.421 116.294C117.021 117.766 118.004 119.787 118.172 121.95H207.787C207.974 119.786 208.968 117.771 210.573 116.302C212.178 114.833 214.278 114.016 216.458 114.014V67.5959C215.318 67.6013 214.188 67.3816 213.133 66.9494C212.079 66.5172 211.121 65.8811 210.314 65.0778C209.508 64.2745 208.869 63.32 208.436 62.2694C208.002 61.2189 207.781 60.093 207.787 58.957H118.213C118.213 61.2482 117.3 63.4455 115.673 65.0656C114.047 66.6857 111.842 67.5959 109.542 67.5959Z" fill="#F37238"/>
<path d="M158.291 117.982L157.461 115.667L154.972 115.626L160.366 108.145L163.643 110.459L158.291 117.982Z" fill="#F37238"/>
<path d="M167.709 117.982L168.539 115.667L170.987 115.626L165.635 108.145L162.315 110.459L167.709 117.982Z" fill="#F37238"/>
<path d="M170.323 107.028C170.323 107.772 169.368 108.351 169.161 109.012C168.954 109.673 169.368 110.748 168.912 111.327C168.456 111.905 167.377 111.823 166.796 112.236C166.215 112.649 165.966 113.765 165.261 113.972C164.556 114.179 163.726 113.476 162.979 113.476C162.232 113.476 161.403 114.179 160.739 113.972C160.075 113.765 159.743 112.649 159.162 112.236C158.581 111.823 157.503 111.905 157.046 111.327C156.59 110.748 157.046 109.715 156.839 109.012C156.631 108.309 155.677 107.772 155.677 107.028C155.677 106.284 156.59 105.705 156.839 105.044C157.088 104.383 156.631 103.308 157.046 102.729C157.461 102.151 158.581 102.233 159.162 101.779C159.743 101.324 160.034 100.29 160.739 100.084C161.444 99.8771 162.232 100.58 162.979 100.58C163.726 100.58 164.597 99.8358 165.261 100.084C165.925 100.332 166.215 101.365 166.796 101.779C167.377 102.192 168.497 102.151 168.912 102.729C169.327 103.308 168.954 104.341 169.161 105.044C169.368 105.747 170.323 106.284 170.323 107.028Z" fill="#FF9A60"/>
<path d="M167.667 107.028C167.667 107.952 167.392 108.855 166.877 109.623C166.362 110.391 165.63 110.99 164.773 111.344C163.917 111.697 162.974 111.79 162.065 111.609C161.155 111.429 160.32 110.984 159.664 110.331C159.009 109.678 158.562 108.846 158.381 107.94C158.2 107.034 158.293 106.094 158.648 105.241C159.003 104.387 159.604 103.658 160.375 103.145C161.146 102.632 162.052 102.358 162.979 102.358C163.596 102.352 164.209 102.469 164.78 102.702C165.351 102.935 165.87 103.279 166.307 103.713C166.743 104.148 167.088 104.665 167.322 105.234C167.555 105.804 167.673 106.413 167.667 107.028Z" fill="#F37238"/>
<path d="M194.76 67.3887H131.241V73.6343H194.76V67.3887Z" fill="#D77238"/>
<path opacity="0.5" d="M205.09 88.7168H121.74V91.8417H205.09V88.7168Z" fill="#D77238"/>
<path opacity="0.5" d="M205.09 83.5508H121.74V86.6756H205.09V83.5508Z" fill="#D77238"/>
<path opacity="0.5" d="M205.09 94.2969H121.74V97.4217H205.09V94.2969Z" fill="#D77238"/>
<path d="M128.378 116.329C129.415 113.394 130.577 110.459 131.863 107.607L131.365 107.442C131.075 108.186 130.784 108.93 130.452 109.674C130.121 110.418 129.789 111.162 129.54 111.947C129.291 112.733 129.457 112.774 129.913 112.898C130.369 113.022 131.075 112.567 131.448 112.278L131.075 111.989C130.947 112.281 130.922 112.608 131.005 112.916C131.088 113.224 131.273 113.494 131.531 113.683C131.643 113.751 131.767 113.797 131.896 113.817C132.025 113.837 132.157 113.831 132.284 113.801C132.412 113.77 132.531 113.715 132.637 113.638C132.743 113.561 132.832 113.464 132.9 113.353C132.922 113.316 132.933 113.274 132.934 113.231C132.934 113.188 132.923 113.146 132.902 113.108C132.881 113.071 132.851 113.039 132.814 113.017C132.778 112.995 132.736 112.982 132.693 112.981C132.58 112.976 132.467 112.998 132.365 113.045C132.262 113.093 132.172 113.164 132.103 113.253C132.034 113.342 131.988 113.447 131.967 113.557C131.947 113.668 131.954 113.782 131.988 113.89C132.153 114.51 132.942 114.758 133.481 114.882C134.02 115.006 137.008 115.171 136.344 113.931C136.317 113.88 136.274 113.84 136.221 113.818C136.168 113.795 136.109 113.791 136.053 113.807C135.348 113.89 135.39 114.841 135.929 115.089C137.091 115.585 137.423 113.89 138.294 113.725L138.003 113.477C137.991 113.613 138.032 113.749 138.117 113.856C138.201 113.964 138.324 114.035 138.46 114.055C138.875 114.138 139.082 113.725 139.455 113.642C139.829 113.559 140.202 113.973 140.451 114.179C140.739 114.399 141.085 114.529 141.447 114.551C141.779 114.593 141.779 114.097 141.447 114.055C141.115 114.014 140.493 113.435 139.953 113.229C139.759 113.14 139.542 113.112 139.331 113.146L139.041 113.27C138.999 113.27 138.501 113.642 138.501 113.477C138.504 113.436 138.496 113.395 138.478 113.358C138.461 113.321 138.435 113.289 138.402 113.264C138.369 113.239 138.331 113.223 138.29 113.217C138.25 113.211 138.208 113.215 138.169 113.229C137.809 113.315 137.487 113.518 137.257 113.807C137.132 113.996 136.993 114.176 136.842 114.345L136.551 114.593C136.261 114.758 136.136 114.634 136.178 114.303L135.887 114.179C135.929 114.303 134.975 114.469 134.933 114.469C134.644 114.51 134.351 114.51 134.062 114.469C133.763 114.439 133.47 114.37 133.191 114.262L132.734 114.055C132.651 113.973 132.236 113.477 132.693 113.477L132.485 113.105C132.437 113.171 132.372 113.224 132.298 113.259C132.224 113.294 132.142 113.31 132.059 113.306C131.977 113.302 131.897 113.278 131.827 113.236C131.756 113.193 131.697 113.134 131.656 113.063C131.569 112.922 131.517 112.763 131.502 112.598C131.488 112.433 131.512 112.267 131.573 112.113C131.656 111.947 131.365 111.699 131.199 111.823C131.04 111.975 130.858 112.1 130.66 112.195C130.452 112.278 129.996 112.567 130.038 112.154C130.076 111.919 130.161 111.695 130.286 111.493L130.618 110.625L131.863 107.566C131.988 107.277 131.531 107.111 131.407 107.359C130.121 110.253 128.959 113.187 127.88 116.163C127.756 116.494 128.254 116.618 128.378 116.329Z" fill="#C35E24"/>
<path d="M189.905 113.228C190.237 111.905 190.569 110.624 191.026 109.343L190.528 109.219C190.434 109.443 190.434 109.696 190.528 109.921C190.621 110.146 190.8 110.324 191.026 110.417C191.251 110.511 191.505 110.511 191.73 110.418C191.956 110.325 192.135 110.146 192.229 109.921L191.731 109.797L191.855 110.996C191.855 111.203 192.146 111.368 192.27 111.203C194.628 108.401 196.139 104.989 196.627 101.365H196.087C195.637 105.087 196.166 108.862 197.622 112.319L197.871 111.988C194.054 111.616 190.196 111.368 186.379 111.203C186.089 111.203 186.006 111.699 186.296 111.74C189.758 112.237 193.255 112.444 196.751 112.36C196.817 112.36 196.88 112.334 196.927 112.287C196.974 112.241 197 112.178 197 112.112C197 112.046 196.974 111.983 196.927 111.937C196.88 111.89 196.817 111.864 196.751 111.864C193.31 111.947 189.868 111.74 186.462 111.244L186.379 111.74C190.196 111.864 194.054 112.153 197.871 112.484C197.91 112.479 197.946 112.466 197.98 112.447C198.013 112.428 198.042 112.402 198.065 112.371C198.089 112.34 198.105 112.305 198.115 112.268C198.124 112.23 198.126 112.191 198.12 112.153C196.675 108.752 196.16 105.03 196.627 101.365C196.668 101.035 196.129 101.035 196.087 101.365C195.625 104.846 194.187 108.127 191.938 110.831L192.353 110.996L192.27 109.797C192.229 109.549 191.897 109.425 191.772 109.673C191.758 109.732 191.73 109.787 191.692 109.833C191.654 109.88 191.606 109.918 191.552 109.945C191.497 109.971 191.438 109.986 191.377 109.987C191.317 109.988 191.257 109.976 191.201 109.951C191.146 109.927 191.097 109.89 191.057 109.845C191.017 109.799 190.988 109.746 190.971 109.688C190.954 109.63 190.951 109.569 190.96 109.509C190.969 109.45 190.992 109.393 191.026 109.343C191.109 109.053 190.611 108.929 190.528 109.219C190.071 110.5 189.739 111.781 189.408 113.063C189.366 113.393 189.864 113.559 189.905 113.228Z" fill="#C35E24"/>
<path d="M77.9276 62.7598H53.8228V65.2935H77.9276V62.7598Z" fill="#EEEDEB"/>
<g style="mix-blend-mode:multiply">
<path d="M272.634 97.6455H248.529V100.179H272.634V97.6455Z" fill="#EEEDEB"/>
</g>
<path d="M69.3397 67.4297H45.2349V69.9635H69.3397V67.4297Z" fill="#EEEDEB"/>
</g>
<defs>
<filter id="filter0_d_740_2904" x="0" y="0" width="325" height="168" filterUnits="userSpaceOnUse" color-interpolation-filters="sRGB">
<feFlood flood-opacity="0" result="BackgroundImageFix"/>
<feColorMatrix in="SourceAlpha" type="matrix" values="0 0 0 0 0 0 0 0 0 0 0 0 0 0 0 0 0 0 127 0" result="hardAlpha"/>
<feOffset dy="4"/>
<feGaussianBlur stdDeviation="2"/>
<feComposite in2="hardAlpha" operator="out"/>
<feColorMatrix type="matrix" values="0 0 0 0 0 0 0 0 0 0 0 0 0 0 0 0 0 0 0.25 0"/>
<feBlend mode="normal" in2="BackgroundImageFix" result="effect1_dropShadow_740_2904"/>
<feBlend mode="normal" in="SourceGraphic" in2="effect1_dropShadow_740_2904" result="shape"/>
</filter>
<clipPath id="clip0_740_2904">
<rect width="262" height="145" fill="white" transform="translate(32 7)"/>
</clipPath>
</defs>
</svg>
