<svg width="301" height="216" viewBox="0 0 301 216" fill="none" xmlns="http://www.w3.org/2000/svg">
<g filter="url(#filter0_d_740_2234)">
<path d="M27.6091 10.5315L261.909 13.8118C264.072 13.8408 266.207 14.312 268.183 15.1963C270.103 16.0586 271.839 17.2822 273.296 18.8005C276.323 21.9485 278.01 26.1479 278.002 30.5147V173.326C278.01 177.692 276.323 181.892 273.296 185.04C271.839 186.558 270.103 187.782 268.183 188.644C266.207 189.528 264.072 189.999 261.909 190.028L27.6091 193.314C25.2934 193.35 22.9937 192.924 20.8449 192.06C18.7842 191.23 16.9048 190.006 15.3112 188.458C13.6918 186.89 12.4048 185.012 11.5271 182.936C10.6495 180.86 10.1992 178.629 10.2032 176.375V27.469C10.1993 25.2154 10.6496 22.9841 11.5271 20.9083C12.4046 18.8325 13.6913 16.9548 15.3104 15.3872C16.9039 13.839 18.7834 12.6155 20.8441 11.7848C22.9931 10.9207 25.2932 10.4946 27.6091 10.5315Z" fill="white"/>
<path d="M263.972 156.869H24V156.989H263.972V156.869Z" fill="#EBEBEB"/>
<path d="M239.929 164.591H224.033V164.711H239.929V164.591Z" fill="#EBEBEB"/>
<path d="M182.969 165.897H178.798V166.017H182.969V165.897Z" fill="#EBEBEB"/>
<path d="M223.549 160.139H214.339V160.259H223.549V160.139Z" fill="#EBEBEB"/>
<path d="M69.9045 160.944H49.1758V161.064H69.9045V160.944Z" fill="#EBEBEB"/>
<path d="M77.2216 160.944H74.1836V161.064H77.2216V160.944Z" fill="#EBEBEB"/>
<path d="M132.059 162.97H87.0977V163.09H132.059V162.97Z" fill="#EBEBEB"/>
<path d="M205.548 126.753V133.568L208.428 135.661H194.99L199.28 134.067V127.228L205.548 126.753Z" fill="#E0E0E0"/>
<path d="M169.295 135.464V156.932H229.288V135.464H169.295ZM170.375 136.856H217.333V143.872H170.38L170.375 136.856Z" fill="#E0E0E0"/>
<path d="M169.295 135.464V156.932H218.778V135.464H169.295ZM170.375 136.856H217.333V143.872H170.38L170.375 136.856Z" fill="#EBEBEB"/>
<path d="M170.38 143.873H180.055V136.856H170.38V143.873Z" fill="#E0E0E0"/>
<path d="M205.364 143.873H217.339V140.365H205.364V143.873Z" fill="#E0E0E0"/>
<path d="M195.469 143.873H204.482V141.79H195.469V143.873Z" fill="#E0E0E0"/>
<path d="M184.796 143.873H193.382V139.611H184.796V143.873Z" fill="#E0E0E0"/>
<path d="M208.826 145.398L209.08 146.238H212.526L212.785 145.398H217.335V154.714H202.231V145.398H208.826Z" fill="#E0E0E0"/>
<path d="M190.877 145.398L191.136 146.238H194.582L194.841 145.398H201.431V154.714H186.327V145.398H190.877Z" fill="#E0E0E0"/>
<path d="M177.013 145.398L177.267 146.238H180.713L180.972 145.398H185.522V154.714H170.418V145.398H177.013Z" fill="#E0E0E0"/>
<path d="M178.074 130.828H222.704C223.639 130.828 224.398 130.07 224.398 129.134V103.51C224.398 102.574 223.639 101.816 222.704 101.816H178.074C177.138 101.816 176.38 102.574 176.38 103.51V129.134C176.38 130.07 177.138 130.828 178.074 130.828Z" fill="#E0E0E0"/>
<path d="M176.941 130.828H221.571C222.507 130.828 223.266 130.07 223.266 129.134V103.51C223.266 102.574 222.507 101.816 221.571 101.816H176.941C176.006 101.816 175.247 102.574 175.247 103.51V129.134C175.247 130.07 176.006 130.828 176.941 130.828Z" fill="#E6E6E6"/>
<path d="M221.854 129.416V103.221H176.658V129.416H221.854Z" fill="#F0F0F0"/>
<path d="M115.734 25H58.7979V83.8315H115.734V25Z" fill="#EBEBEB"/>
<path d="M117.73 25H60.7939V83.8315H117.73V25Z" fill="#F0F0F0"/>
<path d="M116.223 26.3965H62.229V82.4683H116.223V26.3965Z" fill="#E0E0E0"/>
<path d="M114.874 26.3965H62.229V82.4683H114.874V26.3965Z" fill="#F5F5F5"/>
<path d="M89.0991 26.3965H88.0288V82.4683H89.0991V26.3965Z" fill="#EBEBEB"/>
<path d="M95.2271 26.3965L110.23 82.4635H111.67L96.6669 26.3965H95.2271Z" fill="white"/>
<path d="M89.55 25.5322H88.6333V83.543H89.55V25.5322Z" fill="#F0F0F0"/>
<path d="M100.674 26.3965L114.876 79.459V50.2929L108.483 26.3965H100.674Z" fill="white"/>
<path d="M62.229 31.4844V36.8645L74.434 82.464H75.8738L62.229 31.4844Z" fill="white"/>
<path d="M62.229 42.3496V71.5158L65.1567 82.4633H72.9605L62.229 42.3496Z" fill="white"/>
<path d="M215.762 28.3545H181.288V70.3015H215.762V28.3545Z" fill="#E6E6E6"/>
<path d="M207.872 59.9108L189.759 42.1049L209.355 38.8701L207.872 59.9108Z" fill="#E0E0E0"/>
<path d="M190.19 55.6925L189.293 42.0381L202.933 45.3881L203.922 55.8317L190.19 55.6925Z" fill="#F0F0F0"/>
<path d="M211.932 40.3692C214.081 38.2193 214.081 34.7338 211.932 32.584C209.782 30.4342 206.296 30.4342 204.146 32.584C201.997 34.7338 201.997 38.2193 204.146 40.3692C206.296 42.519 209.782 42.519 211.932 40.3692Z" fill="#FAFAFA"/>
<path d="M191.981 60.5599C191.982 60.0308 191.826 59.5133 191.532 59.0729C191.239 58.6326 190.821 58.2892 190.333 58.0862C189.844 57.8833 189.306 57.83 188.787 57.933C188.268 58.036 187.791 58.2907 187.417 58.6648C187.043 59.039 186.788 59.5158 186.685 60.0348C186.582 60.5538 186.636 61.0917 186.839 61.5804C187.042 62.069 187.385 62.4865 187.825 62.7799C188.266 63.0733 188.783 63.2293 189.312 63.2284C190.02 63.2271 190.698 62.9456 191.198 62.4454C191.698 61.9453 191.98 61.2673 191.981 60.5599Z" fill="#E0E0E0"/>
<path d="M189.941 65.2524L197.649 60.5586L191.17 55.2168L189.941 65.2524Z" fill="#F5F5F5"/>
<path d="M199.049 67.1875H200.566V33.6923H199.049V67.1875Z" fill="#E0E0E0"/>
<path d="M184.518 65.7041H186.481V33.6919H184.518V65.7041Z" fill="#EBEBEB"/>
<path d="M202.274 65.8574H212.295V55.8362H202.274V65.8574Z" fill="#EBEBEB"/>
<path d="M87.7848 135.833L81.44 117.547C81.44 117.547 90.2325 124.07 90.1845 116.842C90.1365 109.614 86.1722 115.229 84.8044 112.556C83.4365 109.883 88.7063 109.911 86.8537 105.861C85.0011 101.81 79.7458 108.035 78.8147 104.445C77.8836 100.855 76.4149 99.0312 72.5754 99.3527C72.5754 99.3527 70.5068 104.075 73.0553 107.488C75.6038 110.9 66.7633 108.16 67.6752 111.591C68.5871 115.023 71.5147 118.018 72.8154 115.604C74.116 113.189 75.7526 117.816 73.5401 119.011C71.3275 120.206 76.4197 125.37 77.5572 122.659C78.3388 120.857 79.3037 119.141 80.4369 117.538L86.2874 137.105L87.7848 135.833Z" fill="#EBEBEB"/>
<path d="M94.3296 135.997L101.481 124.301C101.481 124.301 94.4064 127.488 95.539 122.492C96.6717 117.496 98.5579 121.978 99.9113 120.337C101.265 118.696 97.6076 117.937 99.5034 115.394C101.399 112.85 104.096 117.971 105.263 115.629C106.429 113.287 107.744 112.245 110.35 113.047C110.35 113.047 111.07 116.627 108.795 118.604C106.52 120.582 113.038 120.044 111.9 122.262C110.763 124.479 108.272 126.13 107.739 124.263C107.206 122.396 105.368 125.352 106.722 126.509C108.075 127.666 103.756 130.473 103.391 128.429C103.122 127.064 102.713 125.731 102.172 124.45L95.1695 137.106L94.3296 135.997Z" fill="#E6E6E6"/>
<path d="M89.5034 136.107L92.7766 117.269C92.7766 117.269 85.2367 125.029 84.1376 117.97C83.0386 110.91 87.79 115.757 88.7019 112.93C89.6138 110.103 84.4736 110.977 85.6351 106.729C86.7965 102.482 92.9158 107.718 93.2518 104.07C93.5877 100.423 94.7396 98.407 98.5311 98.1143C98.5311 98.1143 101.3 102.386 99.3662 106.12C97.4321 109.854 105.605 105.779 105.27 109.268C104.934 112.757 102.548 116.146 100.902 113.996C99.2559 111.845 98.3872 116.626 100.734 117.432C103.081 118.238 98.9247 124.094 97.3985 121.631C96.3506 120 95.1362 118.482 93.7749 117.101L91.188 137.105L89.5034 136.107Z" fill="#F5F5F5"/>
<path d="M85.4353 157.288H96.6755C97.0548 157.288 97.4201 157.144 97.6966 156.885C97.9732 156.625 98.1401 156.27 98.1634 155.891L99.3536 136.52C99.3661 136.318 99.337 136.115 99.2681 135.924C99.1992 135.733 99.092 135.559 98.9531 135.411C98.8142 135.263 98.6465 135.145 98.4604 135.064C98.2742 134.983 98.0735 134.942 97.8706 134.941H84.2402C84.0373 134.942 83.8366 134.983 83.6505 135.064C83.4643 135.145 83.2966 135.263 83.1577 135.411C83.0188 135.559 82.9116 135.733 82.8428 135.924C82.7739 136.115 82.7448 136.318 82.7572 136.52L83.9475 155.915C83.9765 156.289 84.146 156.639 84.4219 156.893C84.6979 157.148 85.0599 157.289 85.4353 157.288Z" fill="#EBEBEB"/>
<path d="M82.9081 137.104H99.3462C99.7117 137.104 100.064 136.97 100.337 136.726C100.61 136.483 100.783 136.148 100.824 135.785C100.85 135.576 100.83 135.364 100.767 135.163C100.704 134.962 100.6 134.777 100.46 134.619C100.32 134.462 100.149 134.336 99.9568 134.25C99.7648 134.163 99.5567 134.119 99.3462 134.119H82.9081C82.6986 134.119 82.4914 134.163 82.3002 134.249C82.1089 134.335 81.9379 134.46 81.7984 134.616C81.6588 134.772 81.5538 134.956 81.4903 135.156C81.4269 135.356 81.4063 135.567 81.4299 135.775C81.469 136.14 81.6415 136.477 81.9144 136.723C82.1872 136.968 82.5412 137.104 82.9081 137.104Z" fill="#F5F5F5"/>
<path d="M143.982 178.545C195.375 178.545 237.038 176.112 237.038 173.112C237.038 170.111 195.375 167.679 143.982 167.679C92.588 167.679 50.9253 170.111 50.9253 173.112C50.9253 176.112 92.588 178.545 143.982 178.545Z" fill="#F5F5F5"/>
<path d="M195.014 30.7549V165.845C195.014 166.124 194.958 166.401 194.85 166.659C194.742 166.916 194.584 167.15 194.385 167.346C194.185 167.542 193.949 167.697 193.69 167.801C193.43 167.905 193.153 167.956 192.873 167.951H120.286C120.033 167.955 119.782 167.908 119.547 167.813C119.312 167.718 119.099 167.577 118.92 167.398C118.741 167.219 118.6 167.006 118.505 166.771C118.41 166.536 118.363 166.285 118.367 166.032V30.5821C118.358 30.3579 118.393 30.1342 118.471 29.9237C118.548 29.7132 118.667 29.5202 118.819 29.3556C118.972 29.1911 119.155 29.0583 119.359 28.9648C119.563 28.8714 119.784 28.8191 120.008 28.8111H137.262C137.528 28.8163 137.787 28.9009 138.005 29.0539C138.223 29.2069 138.39 29.4215 138.486 29.6702L139.278 31.59C139.375 31.8376 139.544 32.0507 139.763 32.202C139.981 32.3533 140.24 32.436 140.506 32.4395H172.955C173.219 32.4374 173.476 32.3569 173.694 32.2082C173.912 32.0595 174.081 31.8493 174.179 31.6044L174.971 29.651C175.066 29.4018 175.234 29.1866 175.452 29.0327C175.669 28.8789 175.928 28.7934 176.195 28.7871H193.156C193.663 28.8034 194.143 29.0195 194.49 29.3881C194.838 29.7568 195.026 30.2481 195.014 30.7549Z" fill="#263238"/>
<path d="M195.022 37.8232H118.379V158.371H195.022V37.8232Z" fill="#1375ED"/>
<path opacity="0.7" d="M195.022 37.8232H118.379V158.371H195.022V37.8232Z" fill="white"/>
<path opacity="0.6" d="M127.43 34.623H128.424V33.3032H127.43V34.623Z" fill="white"/>
<path opacity="0.6" d="M125.808 34.623H126.802V32.8617H125.808V34.623Z" fill="white"/>
<path opacity="0.6" d="M124.191 34.623H125.185V32.4201H124.191V34.623Z" fill="white"/>
<path opacity="0.6" d="M122.574 34.623H123.567V31.9786H122.574V34.623Z" fill="white"/>
<path opacity="0.6" d="M186.132 32.8184H185.547V34.1382H186.132V32.8184Z" fill="white"/>
<path opacity="0.6" d="M186.535 34.623H191.219V32.3337H186.535V34.623Z" fill="white"/>
<path d="M152.906 49.7952H178.127C178.202 49.8023 178.278 49.7936 178.35 49.7697C178.421 49.7458 178.487 49.7072 178.543 49.6563C178.599 49.6055 178.643 49.5436 178.674 49.4745C178.704 49.4054 178.72 49.3307 178.72 49.2552C178.72 49.1797 178.704 49.105 178.674 49.036C178.643 48.9669 178.599 48.9049 178.543 48.8541C178.487 48.8033 178.421 48.7647 178.35 48.7408C178.278 48.7169 178.202 48.7082 178.127 48.7153H152.906C152.772 48.728 152.647 48.7903 152.556 48.8902C152.465 48.9901 152.415 49.1202 152.415 49.2552C152.415 49.3902 152.465 49.5204 152.556 49.6203C152.647 49.7201 152.772 49.7825 152.906 49.7952Z" fill="#263238"/>
<path d="M183.866 51.7944H152.765C152.71 51.7883 152.653 51.7939 152.6 51.811C152.547 51.8281 152.498 51.8563 152.456 51.8936C152.414 51.931 152.381 51.9767 152.358 52.0279C152.335 52.079 152.323 52.1343 152.323 52.1903C152.323 52.2463 152.335 52.3017 152.358 52.3528C152.381 52.404 152.414 52.4497 152.456 52.4871C152.498 52.5244 152.547 52.5526 152.6 52.5697C152.653 52.5868 152.71 52.5924 152.765 52.5863H183.866C183.963 52.5755 184.053 52.5292 184.119 52.4561C184.184 52.3831 184.22 52.2884 184.22 52.1903C184.22 52.0923 184.184 51.9976 184.119 51.9245C184.053 51.8515 183.963 51.8051 183.866 51.7944Z" fill="#263238"/>
<path d="M174.742 54.0659H152.765C152.71 54.0597 152.653 54.0654 152.6 54.0825C152.547 54.0996 152.498 54.1278 152.456 54.1651C152.414 54.2025 152.381 54.2482 152.358 54.2993C152.335 54.3505 152.323 54.4058 152.323 54.4618C152.323 54.5178 152.335 54.5732 152.358 54.6243C152.381 54.6754 152.414 54.7212 152.456 54.7585C152.498 54.7959 152.547 54.8241 152.6 54.8412C152.653 54.8583 152.71 54.8639 152.765 54.8578H174.742C174.839 54.847 174.929 54.8007 174.995 54.7276C175.06 54.6546 175.097 54.5599 175.097 54.4618C175.097 54.3637 175.06 54.2691 174.995 54.196C174.929 54.123 174.839 54.0766 174.742 54.0659Z" fill="#263238"/>
<path d="M194.105 68.751H119.292V143.565H194.105V68.751Z" fill="#1375ED"/>
<path d="M191.69 151.657L189.583 149.838L187.471 151.657V146.656H191.69V151.657Z" fill="#1375ED"/>
<path d="M184.083 146.656H180.906C180.697 146.656 180.497 146.739 180.35 146.887C180.202 147.034 180.119 147.235 180.119 147.443V149.613C180.119 149.821 180.202 150.022 180.35 150.169C180.497 150.317 180.697 150.4 180.906 150.4H181.986V151.657L182.807 150.4H184.083C184.187 150.4 184.29 150.381 184.385 150.341C184.481 150.302 184.568 150.244 184.641 150.171C184.715 150.097 184.773 150.01 184.812 149.915C184.851 149.819 184.871 149.716 184.871 149.613V147.443C184.871 147.34 184.851 147.237 184.812 147.141C184.773 147.046 184.715 146.959 184.641 146.885C184.568 146.812 184.481 146.754 184.385 146.715C184.29 146.676 184.187 146.656 184.083 146.656Z" fill="#1375ED"/>
<path d="M177.712 147.252C177.126 146.292 175.994 146.652 175.408 147.396C174.827 146.647 173.7 146.268 173.1 147.228C172.096 148.841 174.141 150.352 175.111 150.948L175.384 151.116L175.662 150.948C176.618 150.367 178.701 148.879 177.712 147.252Z" fill="#1375ED"/>
<g opacity="0.3">
<path opacity="0.7" d="M178.819 75.0488H181.651L180.235 78.7204L178.819 75.0488Z" fill="white"/>
<path opacity="0.7" d="M187.947 93.3252L188.806 96.0225L184.88 95.7825L187.947 93.3252Z" fill="white"/>
<path d="M186.843 81.4893L185.5 84.7865L189.584 86.2119V83.5434L186.843 81.4893Z" fill="white"/>
<path d="M133.886 74.165H135.964L133.886 76.8863V74.165Z" fill="white"/>
<path d="M126.073 87.5805L128.425 87.043L129.082 89.0635L126.371 90.009L126.073 87.5805Z" fill="white"/>
<path d="M149.867 76.8881C150.373 76.8881 150.784 76.4777 150.784 75.9714C150.784 75.4651 150.373 75.0547 149.867 75.0547C149.361 75.0547 148.95 75.4651 148.95 75.9714C148.95 76.4777 149.361 76.8881 149.867 76.8881Z" fill="white"/>
<path d="M136.516 137.436C136.516 137.796 136.41 138.148 136.209 138.447C136.009 138.746 135.725 138.98 135.392 139.117C135.06 139.255 134.694 139.29 134.341 139.22C133.988 139.149 133.664 138.976 133.409 138.721C133.155 138.466 132.982 138.141 132.913 137.788C132.843 137.435 132.88 137.069 133.018 136.737C133.157 136.404 133.391 136.121 133.69 135.921C133.99 135.722 134.342 135.616 134.702 135.617C134.941 135.617 135.177 135.664 135.398 135.756C135.618 135.847 135.818 135.981 135.987 136.15C136.155 136.319 136.289 136.52 136.38 136.74C136.471 136.961 136.517 137.198 136.516 137.436Z" fill="white"/>
<path d="M127.753 121.632L128.425 122.769L125.176 124.161L124.437 123.403L127.753 121.632Z" fill="white"/>
<path d="M148.95 140.253L148.317 138.646H150.789L148.95 140.253Z" fill="white"/>
<path d="M175.21 138.646L175.402 136.855L178.791 137.748V140.364L175.21 138.646Z" fill="white"/>
<path d="M182.491 129.417H185.519L184.007 131.207L182.491 129.417Z" fill="white"/>
<path d="M187.477 110.997L186.848 114.798L187.544 115.432L188.197 110.997H187.477Z" fill="white"/>
<path d="M122.493 99.8623L125.176 101.811L123.256 103.222L122.493 99.8623Z" fill="white"/>
<path d="M134.395 84.4368C134.562 84.4368 134.697 84.3014 134.697 84.1344C134.697 83.9674 134.562 83.832 134.395 83.832C134.228 83.832 134.092 83.9674 134.092 84.1344C134.092 84.3014 134.228 84.4368 134.395 84.4368Z" fill="white"/>
<path d="M173.252 80.833C173.486 80.833 173.675 80.6439 173.675 80.4106C173.675 80.1774 173.486 79.9883 173.252 79.9883C173.019 79.9883 172.83 80.1774 172.83 80.4106C172.83 80.6439 173.019 80.833 173.252 80.833Z" fill="white"/>
<path d="M161.917 138.3C161.917 138.39 161.881 138.477 161.818 138.541C161.754 138.605 161.667 138.641 161.577 138.641C161.486 138.641 161.4 138.605 161.336 138.541C161.272 138.477 161.236 138.39 161.236 138.3C161.236 138.209 161.272 138.123 161.336 138.059C161.4 137.995 161.486 137.959 161.577 137.959C161.667 137.959 161.754 137.995 161.818 138.059C161.881 138.123 161.917 138.209 161.917 138.3Z" fill="white"/>
<path d="M165.915 72.5195L169.294 72.0107V73.657L165.915 74.1657V72.5195Z" fill="white"/>
<path d="M188.197 74.165H189.305L188.749 75.5233L188.197 74.165Z" fill="white"/>
<path d="M124.437 75.9697H126.074L125.253 76.8864L124.437 75.9697Z" fill="white"/>
<path d="M186.479 140.253L186.32 137.104L188.744 137.959L186.479 140.253Z" fill="white"/>
<path d="M188.811 122.137L187.544 121.124V122.137L188.811 122.9V122.137Z" fill="white"/>
<path d="M123.832 112.008L125.253 113.212L124.543 114.288L122.661 112.781L123.832 112.008Z" fill="white"/>
<path d="M122.661 83.832H124.437L122.493 84.4368L122.661 83.832Z" fill="white"/>
</g>
<path d="M153.616 80.9563L156.827 77.9375L160.004 80.9851L163.863 78.859L166.186 82.6026L170.453 81.5083L171.768 85.7078H176.173L176.409 90.1041L180.675 91.1983L179.802 95.5178L183.665 97.6392L181.75 101.604L184.961 104.618L182.12 107.982L184.481 111.702L180.891 114.255L182.254 118.44L178.146 120.019L178.424 124.415L174.047 124.924L173.227 129.253L168.859 128.653L166.987 132.641L162.908 130.976L160.1 134.374L156.563 131.749L153.002 134.34L150.228 130.918L146.134 132.541L144.3 128.538L139.933 129.09L139.151 124.756L134.778 124.204L135.1 119.813L131.006 118.195L132.407 114.02L128.841 111.433L131.241 107.737L128.429 104.344L131.673 101.364L129.797 97.3752L133.679 95.2923L132.849 90.968L137.125 89.9169L137.399 85.5206L141.805 85.5638L143.163 81.3739L147.42 82.5114L149.777 78.7918L153.616 80.9563Z" fill="#1375ED"/>
<path opacity="0.4" d="M182.6 108.942L185.441 105.582L182.23 102.568L184.15 98.604L180.287 96.4827L181.16 92.1632L176.893 91.0689L176.658 86.6726H172.252L170.937 82.4731L166.671 83.5674L164.348 79.8238L160.508 81.95L157.331 78.9023L154.12 81.9212L150.281 79.7566L147.924 83.481L143.667 82.3387L142.309 86.5286L137.903 86.4855L137.629 90.8817L133.353 91.9328L134.183 96.2523L130.301 98.3353L132.177 102.324L128.909 105.323L131.721 108.716L129.321 112.412L132.887 114.999L131.486 119.174L135.58 120.792L135.258 125.183L139.631 125.735L140.408 130.055L144.78 129.503L146.614 133.506L150.708 131.883L153.482 135.305L157.043 132.714L160.58 135.339L163.388 131.941L167.467 133.606L169.339 129.618L173.702 130.218L174.527 125.898L178.904 125.39L178.621 120.993L182.734 119.414L181.371 115.224L184.961 112.676L182.6 108.942ZM181.717 112.042L178.544 114.298L179.749 117.999L176.116 119.39L176.365 123.273L172.497 123.724L171.772 127.564L167.933 127.036L166.277 130.559L162.678 129.09L160.196 132.085L157.072 129.767L153.928 132.056L151.48 129.032L147.862 130.472L146.244 126.935L142.381 127.415L141.694 123.575L137.855 123.096L138.143 119.218L134.524 117.778L135.762 114.092L132.614 111.807L134.735 108.544L132.249 105.549L135.129 102.914L133.425 99.3719L136.857 97.5337L136.122 93.6942L139.904 92.7679L140.144 88.8852L144.032 88.9236L145.232 85.2232L148.99 86.2311L151.072 82.9435L154.466 84.8632L157.297 82.1948L160.105 84.8872L163.513 83.0107L165.567 86.3175L169.334 85.3576L170.496 89.0723H174.388L174.595 92.9599L178.362 93.9198L177.594 97.7305L181.002 99.6023L179.312 103.106L182.149 105.77L179.639 108.74L181.717 112.042Z" fill="black"/>
<path opacity="0.4" d="M153.616 80.9563L156.827 77.9375L160.004 80.9851L163.863 78.859L166.186 82.6026L170.453 81.5083L171.768 85.7078H176.173L176.409 90.1041L180.675 91.1983L179.802 95.5178L183.665 97.6392L181.75 101.604L184.961 104.618L182.12 107.982L184.481 111.702L180.891 114.255L182.254 118.44L178.146 120.019L178.424 124.415L174.047 124.924L173.227 129.253L168.859 128.653L166.987 132.641L162.908 130.976L160.1 134.374L156.563 131.749L153.002 134.34L150.228 130.918L146.134 132.541L144.3 128.538L139.933 129.09L139.151 124.756L134.778 124.204L135.1 119.813L131.006 118.195L132.407 114.02L128.841 111.433L131.241 107.737L128.429 104.344L131.673 101.364L129.797 97.3752L133.679 95.2923L132.849 90.968L137.125 89.9169L137.399 85.5206L141.805 85.5638L143.163 81.3739L147.42 82.5114L149.777 78.7918L153.616 80.9563Z" fill="black"/>
<path d="M182.12 107.982L184.961 104.622L181.75 101.608L183.67 97.6441L179.807 95.5227L180.68 91.2032L176.413 90.1089L176.178 85.7127H171.772L170.457 81.5132L166.191 82.6074L163.868 78.8639L160.028 80.99L156.851 77.9424L153.64 80.9612L149.801 78.7967L147.444 82.521L143.187 81.3788L141.829 85.5687L137.423 85.5255L137.149 89.9218L132.873 90.9728L133.703 95.2923L129.821 97.3753L131.697 101.364L128.429 104.363L131.241 107.756L128.841 111.452L132.407 114.039L131.006 118.214L135.1 119.832L134.778 124.223L139.151 124.775L139.928 129.095L144.3 128.543L146.134 132.546L150.228 130.923L153.002 134.345L156.563 131.754L160.1 134.379L162.908 130.981L166.987 132.646L168.859 128.658L173.222 129.258L174.047 124.938L178.424 124.43L178.141 120.033L182.254 118.454L180.891 114.264L184.481 111.716L182.12 107.982ZM181.237 111.082L178.064 113.338L179.269 117.039L175.636 118.43L175.886 122.313L172.017 122.764L171.292 126.604L167.453 126.076L165.797 129.599L162.198 128.13L159.716 131.125L156.592 128.807L153.448 131.096L151 128.072L147.382 129.512L145.764 125.975L141.901 126.455L141.214 122.616L137.375 122.136L137.663 118.258L134.044 116.818L135.282 113.132L132.134 110.847L134.255 107.584L131.769 104.589L134.649 101.954L132.945 98.412L136.377 96.5738L135.642 92.7342L139.424 91.8079L139.664 87.9252L143.552 87.9636L144.752 84.2632L148.51 85.2711L150.592 81.9835L153.986 83.9033L156.817 81.2348L159.625 83.9273L163.033 82.0507L165.087 85.3575L168.854 84.3976L170.016 88.1124H173.908L174.115 91.9999L177.882 92.9598L177.114 96.7706L180.522 98.6423L178.832 102.146L181.669 104.81L179.159 107.78L181.237 111.082Z" fill="#1375ED"/>
<path opacity="0.6" d="M182.12 107.982L184.961 104.622L181.75 101.608L183.67 97.6441L179.807 95.5227L180.68 91.2032L176.413 90.1089L176.178 85.7127H171.772L170.457 81.5132L166.191 82.6074L163.868 78.8639L160.028 80.99L156.851 77.9424L153.64 80.9612L149.801 78.7967L147.444 82.521L143.187 81.3788L141.829 85.5687L137.423 85.5255L137.149 89.9218L132.873 90.9728L133.703 95.2923L129.821 97.3753L131.697 101.364L128.429 104.363L131.241 107.756L128.841 111.452L132.407 114.039L131.006 118.214L135.1 119.832L134.778 124.223L139.151 124.775L139.928 129.095L144.3 128.543L146.134 132.546L150.228 130.923L153.002 134.345L156.563 131.754L160.1 134.379L162.908 130.981L166.987 132.646L168.859 128.658L173.222 129.258L174.047 124.938L178.424 124.43L178.141 120.033L182.254 118.454L180.891 114.264L184.481 111.716L182.12 107.982ZM181.237 111.082L178.064 113.338L179.269 117.039L175.636 118.43L175.886 122.313L172.017 122.764L171.292 126.604L167.453 126.076L165.797 129.599L162.198 128.13L159.716 131.125L156.592 128.807L153.448 131.096L151 128.072L147.382 129.512L145.764 125.975L141.901 126.455L141.214 122.616L137.375 122.136L137.663 118.258L134.044 116.818L135.282 113.132L132.134 110.847L134.255 107.584L131.769 104.589L134.649 101.954L132.945 98.412L136.377 96.5738L135.642 92.7342L139.424 91.8079L139.664 87.9252L143.552 87.9636L144.752 84.2632L148.51 85.2711L150.592 81.9835L153.986 83.9033L156.817 81.2348L159.625 83.9273L163.033 82.0507L165.087 85.3575L168.854 84.3976L170.016 88.1124H173.908L174.115 91.9999L177.882 92.9598L177.114 96.7706L180.522 98.6423L178.832 102.146L181.669 104.81L179.159 107.78L181.237 111.082Z" fill="white"/>
<path opacity="0.4" d="M142.591 104.751C142.591 104.751 145.038 104.329 146.243 104.751C147.448 105.174 152.545 113.87 152.545 113.87C152.545 113.87 162.432 100.269 170.336 94.3223C170.336 94.3223 160.08 103.508 154.133 118.929C154.133 118.929 152.132 119.812 150.716 118.233C150.308 117.753 145.715 109.925 144.827 109.632C144.131 109.397 141.885 109.512 141.885 109.512L142.591 104.751Z" fill="black"/>
<path d="M142.111 104.273C142.111 104.273 144.559 103.851 145.763 104.273C146.968 104.695 152.065 113.392 152.065 113.392C152.065 113.392 161.952 99.7902 169.856 93.8438C169.856 93.8438 159.6 103.03 153.653 118.45C153.653 118.45 151.652 119.334 150.236 117.755C149.828 117.275 145.235 109.447 144.347 109.154C143.651 108.919 141.405 109.034 141.405 109.034L142.111 104.273Z" fill="white"/>
<path d="M145.803 54.0415C145.813 56.0088 145.318 57.9458 144.364 59.6664L144.152 60.0264C143.467 61.1644 142.588 62.1746 141.556 63.0116L141.498 63.0596C140.521 63.8471 139.422 64.4696 138.244 64.9026C136.971 65.369 135.626 65.6063 134.27 65.6033C133.839 65.6059 133.408 65.5819 132.979 65.5313C132.26 65.4548 131.549 65.3085 130.858 65.0946C129.175 64.577 127.634 63.6768 126.356 62.4645C124.959 61.1502 123.911 59.5093 123.305 57.6892C122.7 55.8692 122.556 53.9272 122.887 52.038C123.218 50.1487 124.014 48.3714 125.203 46.8659C126.391 45.3605 127.935 44.1741 129.696 43.4135C131.457 42.6529 133.379 42.3419 135.29 42.5086C137.201 42.6753 139.041 43.3144 140.643 44.3683C142.246 45.4223 143.561 46.8581 144.471 48.5466C145.381 50.2351 145.857 52.1234 145.856 54.0415H145.803Z" fill="#1375ED"/>
<path d="M144.348 59.6666L144.136 60.0265C141.49 59.9852 138.85 60.2836 136.28 60.9144L135.421 61.1256L134.835 61.2792C134.101 61.4759 133.395 61.6823 132.795 61.8791L132.522 61.9703L132.325 62.0327C131.61 62.2727 131 62.4886 130.535 62.6662C129.839 62.9302 129.441 63.103 129.441 63.103C129.213 62.8095 129.005 62.5017 128.817 62.1815L128.788 62.1287C127.746 60.3817 125.908 56.3694 126.772 50.61C127.732 44.2028 133.045 44.6107 134.931 44.9659C135.157 45.0032 135.379 45.0545 135.598 45.1195C135.598 45.1195 141.545 46.5209 141.766 50.2261C141.797 50.722 141.858 51.2157 141.948 51.7043C142.507 54.4251 143.31 57.0899 144.348 59.6666Z" fill="#263238"/>
<path d="M138.224 64.9034C136.952 65.3699 135.606 65.6071 134.251 65.6041C133.819 65.6067 133.388 65.5827 132.959 65.5321C132.24 65.4556 131.529 65.3094 130.838 65.0954L130.469 62.0765L130.291 60.6367L138.205 61.7598V62.4365L138.229 64.4235V64.9034H138.224Z" fill="#1375ED"/>
<path d="M141.479 63.06C140.502 63.8474 139.402 64.47 138.225 64.903C136.952 65.3694 135.606 65.6067 134.251 65.6037C133.819 65.6063 133.388 65.5822 132.96 65.5317C132.24 65.4552 131.53 65.3089 130.838 65.0949C129.155 64.5773 127.614 63.6771 126.336 62.4648C126.701 62.4072 127.071 62.3641 127.44 62.3161H127.531C127.968 62.2681 128.405 62.2249 128.842 62.1913C129.36 62.1481 129.874 62.1145 130.392 62.0953H130.483L131.117 62.0713H131.87H132.753C133.713 62.0713 134.686 62.1065 135.671 62.1769L136.665 62.2585L137.188 62.3113L137.946 62.4264L138.114 62.4504H138.229L139.122 62.604C139.261 62.628 139.4 62.6616 139.54 62.6808L139.804 62.7336L140.087 62.7864L140.567 62.8824L140.903 62.9496L141.479 63.06Z" fill="#263238"/>
<path d="M136.199 65.0075C132.902 64.4459 131.961 62.9869 131.961 62.9869C133.372 61.7679 133.204 59.8721 132.921 58.6674C132.83 58.2915 132.708 57.9239 132.556 57.5684L136.516 58.4802C136.401 59.0309 136.325 59.5891 136.29 60.1505C136.26 60.5658 136.281 60.9833 136.352 61.3935C136.573 62.5934 137.255 62.6414 137.255 62.6414C137.883 64.0092 136.199 65.0075 136.199 65.0075Z" fill="#E4897B"/>
<path opacity="0.2" d="M136.276 60.1798C136.246 60.5951 136.267 61.0126 136.338 61.4228C134.764 61.1444 133.612 59.8294 132.907 58.6967C132.816 58.3208 132.694 57.9532 132.542 57.5977L136.502 58.5096C136.387 59.0602 136.311 59.6184 136.276 60.1798Z" fill="black"/>
<path d="M135.736 47.1637C139.484 47.3269 140.607 49.3859 140.713 53.259C140.852 58.0969 139.633 61.4804 134.992 60.2518C128.685 58.5768 129.511 46.895 135.736 47.1637Z" fill="#E4897B"/>
<path d="M138.306 52.9424C138.583 53.5158 138.928 54.054 139.333 54.5454C139.215 54.6949 139.06 54.8096 138.882 54.8772C138.705 54.9449 138.512 54.9629 138.325 54.9293L138.306 52.9424Z" fill="#DE5753"/>
<path d="M134.452 50.61C134.409 50.6102 134.368 50.5949 134.337 50.5668C134.32 50.5511 134.307 50.5322 134.297 50.5111C134.288 50.4901 134.284 50.4674 134.284 50.4444C134.284 50.4215 134.288 50.3988 134.297 50.3778C134.307 50.3567 134.32 50.3378 134.337 50.3221C134.574 50.0948 134.861 49.9264 135.176 49.8305C135.49 49.7346 135.822 49.714 136.146 49.7701C136.168 49.7742 136.19 49.7826 136.209 49.7949C136.228 49.8073 136.245 49.8233 136.257 49.842C136.27 49.8607 136.28 49.8818 136.284 49.9041C136.289 49.9263 136.289 49.9493 136.285 49.9717C136.281 49.9941 136.273 50.0155 136.26 50.0346C136.248 50.0537 136.232 50.0703 136.213 50.0832C136.195 50.0961 136.173 50.1052 136.151 50.11C136.129 50.1147 136.106 50.115 136.084 50.1109C135.818 50.0688 135.547 50.0867 135.29 50.1631C135.032 50.2395 134.795 50.3725 134.596 50.5524C134.578 50.5726 134.556 50.5883 134.531 50.5983C134.506 50.6083 134.479 50.6123 134.452 50.61Z" fill="#263238"/>
<path d="M140.31 50.4548C140.274 50.4538 140.239 50.4421 140.209 50.4212C140.029 50.2679 139.816 50.157 139.587 50.0964C139.357 50.0357 139.118 50.027 138.885 50.0708C138.863 50.0783 138.84 50.0814 138.817 50.0799C138.794 50.0784 138.772 50.0723 138.751 50.062C138.731 50.0517 138.712 50.0375 138.697 50.02C138.682 50.0026 138.671 49.9823 138.664 49.9604C138.65 49.9165 138.654 49.8689 138.675 49.8277C138.695 49.7866 138.731 49.755 138.774 49.7397C139.059 49.6773 139.355 49.6807 139.639 49.7498C139.922 49.8188 140.186 49.9516 140.411 50.138C140.448 50.1658 140.473 50.2069 140.48 50.2526C140.487 50.2983 140.476 50.345 140.449 50.3828C140.433 50.4044 140.412 50.422 140.388 50.4345C140.364 50.447 140.337 50.4539 140.31 50.4548Z" fill="#263238"/>
<path d="M131.377 53.307C131.377 53.307 133.263 50.3026 133.1 47.9124C133.1 47.9124 140.659 45.196 140.702 52.7503C140.702 52.7503 141.715 46.0887 135.279 45.6615C128.843 45.2344 128.463 54.6653 131.669 57.6169C131.669 57.6169 130.21 55.1836 131.377 53.307Z" fill="#263238"/>
<path d="M131.95 54.1229C131.931 53.6883 131.742 53.2787 131.423 52.983C131.103 52.6874 130.681 52.5296 130.246 52.5439C129.075 52.6207 128.422 54.982 131.287 55.6779C131.695 55.7787 131.945 55.4091 131.95 54.1229Z" fill="#E4897B"/>
<path d="M138.393 56.0343C138.138 56.4144 137.91 56.8121 137.711 57.2245L137.476 57.1573C136.43 56.831 136.036 56.3366 135.945 55.8855C135.899 55.6628 135.907 55.4323 135.969 55.2136C136 55.0888 136.048 54.9692 136.113 54.8584C136.67 55.345 137.324 55.7066 138.033 55.9191C138.254 55.9959 138.393 56.0343 138.393 56.0343Z" fill="#263238"/>
<path d="M138.037 55.9191L137.826 56.2646C136.866 55.9575 136.184 55.6119 135.968 55.2136C135.999 55.0888 136.047 54.9692 136.112 54.8584C136.671 55.3456 137.327 55.7073 138.037 55.9191Z" fill="white"/>
<path d="M137.475 57.1556C136.429 56.8293 136.036 56.3349 135.944 55.8838C136.341 56.0135 136.712 56.2134 137.039 56.4741C137.254 56.6479 137.408 56.8871 137.475 57.1556Z" fill="#DE5753"/>
<path d="M135.652 47.4425C135.652 47.4425 133.877 53.5474 129.999 53.3026C126.121 53.0579 132.446 45.5036 132.446 45.5036C132.446 45.5036 138.882 43.387 141.868 46.8858C144.853 50.3846 140.697 52.7507 140.697 52.7507C140.697 52.7507 141.138 47.9849 135.652 47.4425Z" fill="#263238"/>
<path d="M132.776 52.7028C132.752 52.7025 132.728 52.695 132.709 52.6813C132.689 52.6676 132.674 52.6483 132.665 52.626C132.654 52.5973 132.654 52.5653 132.666 52.5367C132.677 52.5081 132.699 52.4851 132.728 52.4724C135.751 51.1766 135.516 47.0538 135.516 47.0107C135.515 46.9796 135.525 46.9493 135.546 46.926C135.567 46.9027 135.595 46.8883 135.626 46.8859C135.658 46.8844 135.689 46.895 135.713 46.9155C135.737 46.936 135.752 46.9649 135.756 46.9963C135.756 47.0394 136.001 51.3157 132.824 52.6932L132.776 52.7028Z" fill="#263238"/>
<path d="M136.094 52.7318C136.127 53.0198 135.998 53.2741 135.806 53.2981C135.614 53.3221 135.427 53.1014 135.393 52.8182C135.359 52.535 135.489 52.2759 135.681 52.2519C135.873 52.2279 136.06 52.439 136.094 52.7318Z" fill="#263238"/>
<path d="M135.599 52.2708L136.203 51.9492C136.203 51.9492 135.949 52.53 135.599 52.2708Z" fill="#263238"/>
<path d="M139.688 52.2425C139.722 52.5305 139.592 52.7848 139.4 52.8088C139.208 52.8328 139.021 52.6169 138.987 52.3289C138.954 52.0409 139.083 51.7866 139.275 51.7626C139.467 51.7386 139.664 51.9545 139.688 52.2425Z" fill="#263238"/>
<path d="M139.188 51.7805L139.788 51.459C139.788 51.459 139.553 52.0493 139.188 51.7805Z" fill="#263238"/>
<path d="M141.536 63.0122L141.478 63.0602C140.501 63.8477 139.402 64.4702 138.224 64.9032V64.5625V64.4137L137.595 63.1418L137.917 62.3835L138.19 61.75L138.469 62.3547L141.536 63.0122Z" fill="#1375ED"/>
<path opacity="0.6" d="M141.536 63.0122L141.478 63.0602C140.501 63.8477 139.402 64.4702 138.224 64.9032V64.5625V64.4137L137.595 63.1418L137.917 62.3835L138.19 61.75L138.469 62.3547L141.536 63.0122Z" fill="white"/>
<path d="M134.323 63.0461L133.013 64.6923L132.945 65.537C132.226 65.4605 131.515 65.3142 130.824 65.1003C129.141 64.5827 127.6 63.6825 126.322 62.4702L127.412 62.3166H127.503L129.811 61.9902L130.291 60.6416L132.643 62.043L134.337 63.0557L134.323 63.0461Z" fill="#1375ED"/>
<path opacity="0.6" d="M134.318 63.046L133.013 64.6922L132.945 65.5369C132.226 65.4604 131.515 65.3142 130.824 65.1002C129.141 64.5826 127.6 63.6824 126.322 62.4701L127.503 62.3069L129.811 61.9854L130.291 60.6367L132.643 62.0382L134.318 63.046Z" fill="white"/>
<path d="M146.594 63.8223C146.594 64.4441 146.41 65.0519 146.064 65.5689C145.719 66.0858 145.228 66.4887 144.653 66.7267C144.079 66.9646 143.447 67.0269 142.837 66.9056C142.227 66.7843 141.667 66.4849 141.227 66.0452C140.788 65.6056 140.488 65.0454 140.367 64.4356C140.246 63.8258 140.308 63.1937 140.546 62.6193C140.784 62.0449 141.187 61.5539 141.704 61.2085C142.221 60.8631 142.829 60.6787 143.45 60.6787C144.284 60.6787 145.084 61.0099 145.673 61.5995C146.263 62.189 146.594 62.9886 146.594 63.8223Z" fill="white"/>
<path d="M146.138 63.8235C146.138 64.3541 145.98 64.8728 145.686 65.314C145.391 65.7552 144.972 66.0991 144.482 66.3022C143.991 66.5052 143.452 66.5584 142.931 66.4548C142.411 66.3513 141.933 66.0958 141.558 65.7206C141.183 65.3454 140.927 64.8673 140.824 64.3469C140.72 63.8265 140.773 63.287 140.976 62.7968C141.179 62.3066 141.523 61.8876 141.964 61.5928C142.406 61.298 142.924 61.1406 143.455 61.1406C144.166 61.1406 144.849 61.4233 145.352 61.9264C145.855 62.4296 146.138 63.112 146.138 63.8235Z" fill="#263238"/>
<path d="M143.345 65.2188L141.915 63.9566L142.231 63.5966L143.268 64.5085L144.631 62.6367L145.02 62.9199L143.345 65.2188Z" fill="white"/>
<path d="M210.253 159.822C210.253 159.822 207.455 153.722 210.652 147.708C213.848 141.694 214.77 140.279 212.735 139.045C210.7 137.812 209.764 143.845 209.764 143.845C209.764 143.845 208.046 139.683 209.466 135.335C210.887 130.987 211.77 123.898 209.836 123.135C207.902 122.372 209.466 131.976 207.786 135.249C206.931 132.952 206.379 130.552 206.145 128.112C205.91 124.618 206.275 119.036 204.744 117.606C203.213 116.176 202.238 117.165 203.74 124.877C204.643 129.485 205.141 134.163 205.228 138.858C205.228 138.858 201.912 128.741 199.685 128.448C197.458 128.155 197.463 131.428 199.368 134.27C201.274 137.111 204.95 142.203 205.555 144.828C205.555 144.828 201.912 137.217 198.634 139.549C195.356 141.882 201.485 146.479 204.216 148.145C206.946 149.81 208.847 160.22 208.847 160.22L210.253 159.822Z" fill="#1375ED"/>
<path opacity="0.2" d="M210.253 159.822C210.253 159.822 207.455 153.722 210.652 147.708C213.848 141.694 214.77 140.279 212.735 139.045C210.7 137.812 209.764 143.845 209.764 143.845C209.764 143.845 208.046 139.683 209.466 135.335C210.887 130.987 211.77 123.898 209.836 123.135C207.902 122.372 209.466 131.976 207.786 135.249C206.931 132.952 206.379 130.552 206.145 128.112C205.91 124.618 206.275 119.036 204.744 117.606C203.213 116.176 202.238 117.165 203.74 124.877C204.643 129.485 205.141 134.163 205.228 138.858C205.228 138.858 201.912 128.741 199.685 128.448C197.458 128.155 197.463 131.428 199.368 134.27C201.274 137.111 204.95 142.203 205.555 144.828C205.555 144.828 201.912 137.217 198.634 139.549C195.356 141.882 201.485 146.479 204.216 148.145C206.946 149.81 208.847 160.22 208.847 160.22L210.253 159.822Z" fill="black"/>
<path d="M208.044 162.327C208.044 162.327 210.765 156.184 207.497 150.218C204.229 144.253 203.288 142.851 205.313 141.579C207.339 140.307 208.342 146.345 208.342 146.345C208.342 146.345 210.007 142.16 208.538 137.831C207.07 133.502 206.096 126.427 208.02 125.64C209.945 124.853 208.5 134.476 210.213 137.721C211.042 135.411 211.566 133.004 211.773 130.56C211.96 127.061 211.533 121.489 213.045 120.035C214.557 118.58 215.546 119.555 214.135 127.291C213.287 131.92 212.846 136.614 212.815 141.32C212.815 141.32 216.011 131.155 218.233 130.829C220.455 130.502 220.494 133.775 218.622 136.645C216.75 139.516 213.131 144.661 212.56 147.286C212.56 147.286 216.112 139.607 219.414 141.906C222.716 144.205 216.649 148.879 213.938 150.578C211.226 152.277 209.455 162.726 209.455 162.726L208.044 162.327Z" fill="#1375ED"/>
<path d="M220.601 157.945H198.111L199.93 174.043H218.782L220.601 157.945Z" fill="#263238"/>
<path d="M71.5848 163.128L85.4311 161.769V144.731H90.9121V161.76L104.797 163.128C105.462 163.192 106.08 163.502 106.529 163.997C106.978 164.493 107.226 165.137 107.225 165.806V167.884H69.1562V165.796C69.1579 165.129 69.4074 164.487 69.8562 163.994C70.305 163.501 70.9211 163.192 71.5848 163.128Z" fill="#263238"/>
<path opacity="0.1" d="M71.5848 163.128L85.4311 161.769V144.731H90.9121V161.76L104.797 163.128C105.462 163.192 106.08 163.502 106.529 163.997C106.978 164.493 107.226 165.137 107.225 165.806V167.884H69.1562V165.796C69.1579 165.129 69.4074 164.487 69.8562 163.994C70.305 163.501 70.9211 163.192 71.5848 163.128Z" fill="white"/>
<path d="M106.324 173.992C108.278 173.674 109.606 171.833 109.288 169.878C108.971 167.924 107.13 166.597 105.175 166.914C103.221 167.231 101.893 169.073 102.211 171.027C102.528 172.982 104.37 174.309 106.324 173.992Z" fill="#263238"/>
<path d="M74.1497 171.041C74.467 169.086 73.1398 167.245 71.1853 166.927C69.2308 166.61 67.3892 167.937 67.072 169.892C66.7547 171.846 68.082 173.688 70.0364 174.005C71.9909 174.322 73.8325 172.995 74.1497 171.041Z" fill="#263238"/>
<path d="M89.8494 148.913H86.4466C85.9209 148.913 85.4167 148.704 85.045 148.333C84.6732 147.961 84.4644 147.457 84.4644 146.931V131.606H91.8315V146.931C91.8315 147.457 91.6227 147.961 91.251 148.333C90.8793 148.704 90.3751 148.913 89.8494 148.913Z" fill="#263238"/>
<path opacity="0.2" d="M89.8494 148.913H86.4466C85.9209 148.913 85.4167 148.704 85.045 148.333C84.6732 147.961 84.4644 147.457 84.4644 146.931V131.606H91.8315V146.931C91.8315 147.457 91.6227 147.961 91.251 148.333C90.8793 148.704 90.3751 148.913 89.8494 148.913Z" fill="white"/>
<path d="M69.0129 101.551C69.0129 101.551 73.1164 127.185 81.2178 131.6H72.982C72.982 131.6 64.847 122.865 62.3896 101.551H69.0129Z" fill="#263238"/>
<path opacity="0.1" d="M69.0129 101.551C69.0129 101.551 73.1164 127.185 81.2178 131.6H72.982C72.982 131.6 64.847 122.865 62.3896 101.551H69.0129Z" fill="white"/>
<path d="M72.5784 127.977H104.696C105.333 127.977 105.943 128.229 106.393 128.679C106.843 129.129 107.096 129.74 107.096 130.376V133.587H70.1787V130.376C70.1787 129.74 70.4315 129.129 70.8816 128.679C71.3316 128.229 71.942 127.977 72.5784 127.977Z" fill="#1375ED"/>
<path d="M107.672 130.779H69.6073C69.0745 130.779 68.6426 131.211 68.6426 131.744V132.617C68.6426 133.15 69.0745 133.582 69.6073 133.582H107.672C108.204 133.582 108.636 133.15 108.636 132.617V131.744C108.636 131.211 108.204 130.779 107.672 130.779Z" fill="#263238"/>
<path opacity="0.6" d="M107.672 130.779H69.6073C69.0745 130.779 68.6426 131.211 68.6426 131.744V132.617C68.6426 133.15 69.0745 133.582 69.6073 133.582H107.672C108.204 133.582 108.636 133.15 108.636 132.617V131.744C108.636 131.211 108.204 130.779 107.672 130.779Z" fill="white"/>
<path d="M61.3917 106.763H74.5901C78.4297 106.763 80.9686 103.662 80.1959 99.837L79.188 94.7304C78.4201 90.8908 74.6621 87.8096 70.7986 87.8096H57.5905C53.751 87.8096 51.2121 90.91 51.9848 94.7304L53.0071 99.837C53.751 103.662 57.5281 106.763 61.3917 106.763Z" fill="#1375ED"/>
<path d="M73.8164 81.4902H82.225L82.9977 86.5056L75.5202 87.8111L73.8164 81.4902Z" fill="#1375ED"/>
<path d="M129.653 151.163L126.635 152.344L124.465 148.25L122.493 144.531L125.838 142.524L127.858 147.093L129.653 151.163Z" fill="#E4897B"/>
<path opacity="0.2" d="M127.858 147.093L124.465 148.25L122.493 144.531L125.838 142.524L127.858 147.093Z" fill="black"/>
<path d="M127.236 144.861L123.128 147.078C123.128 147.078 107.611 119.798 105.226 120.023C102.84 120.249 80.2062 134.662 73.3047 129.32C66.4031 123.978 73.1175 107.958 73.1175 107.958C73.1175 107.958 86.6039 102.832 88.1541 105.966C88.8341 107.235 89.4398 108.543 89.9683 109.882C90.2707 110.842 90.501 111.692 90.501 111.692C90.9378 111.514 105.039 105.731 111.335 108.812C117.738 111.994 127.236 144.861 127.236 144.861Z" fill="#1375ED"/>
<path opacity="0.3" d="M127.236 144.861L123.128 147.078C123.128 147.078 107.611 119.798 105.226 120.023C102.84 120.249 80.2062 134.662 73.3047 129.32C66.4031 123.978 73.1175 107.958 73.1175 107.958C73.1175 107.958 86.6039 102.832 88.1541 105.966C88.8341 107.235 89.4398 108.543 89.9683 109.882C90.2707 110.842 90.501 111.692 90.501 111.692C90.9378 111.514 105.039 105.731 111.335 108.812C117.738 111.994 127.236 144.861 127.236 144.861Z" fill="white"/>
<path d="M104.924 167.106L101.703 166.736L101.689 162.196L101.684 158.025L105.576 157.843L105.231 162.748L104.924 167.106Z" fill="#E4897B"/>
<path opacity="0.2" d="M105.226 162.85L101.684 162.284V158.075L105.576 157.868L105.226 162.85Z" fill="black"/>
<path d="M121.12 145.711L127.129 142.702L127.753 145.246L123.203 147.593L121.12 145.711Z" fill="#263238"/>
<path d="M83.9902 129.377C83.9902 129.377 84.9789 129.267 100.155 126.454C100.155 126.454 100.5 145.868 101.22 160.333L105.895 160.487C105.895 160.487 112.614 128.369 111.813 123.531C111.011 118.693 105.252 118.026 105.252 118.026C105.252 118.026 95.2161 125.801 83.9902 129.377Z" fill="#1375ED"/>
<path opacity="0.4" d="M83.9902 129.377C83.9902 129.377 84.9789 129.267 100.155 126.454C100.155 126.454 100.5 145.868 101.22 160.333L105.895 160.487C105.895 160.487 112.614 128.369 111.813 123.531C111.011 118.693 105.252 118.026 105.252 118.026C105.252 118.026 95.2161 125.801 83.9902 129.377Z" fill="white"/>
<path opacity="0.3" d="M83.9902 129.377C83.9902 129.377 84.9789 129.267 100.155 126.454C100.155 126.454 100.5 145.868 101.22 160.333L105.895 160.487C105.895 160.487 112.614 128.369 111.813 123.531C111.011 118.693 105.252 118.026 105.252 118.026C105.252 118.026 95.2161 125.801 83.9902 129.377Z" fill="black"/>
<path d="M100.335 159.042L106.709 158.894L105.84 161.519L100.667 161.567L100.335 159.042Z" fill="#263238"/>
<path opacity="0.3" d="M90.4983 111.706L82.2241 114.653C82.2241 114.653 86.5772 111.404 89.9656 109.896C90.268 110.876 90.4983 111.706 90.4983 111.706Z" fill="black"/>
<path d="M72.5829 106.822L72.4629 109.28L87.9699 105.992L87.6099 103.28L72.5829 106.822Z" fill="#263238"/>
<path opacity="0.2" d="M72.5829 106.822L72.4629 109.28L87.9699 105.992L87.6099 103.28L72.5829 106.822Z" fill="black"/>
<path d="M77.2969 105.317L76.5229 105.461L77.2522 109.392L78.0261 109.248L77.2969 105.317Z" fill="#1375ED"/>
<path d="M84.0589 104.319L80.6738 105.082L81.252 107.648L84.6371 106.885L84.0589 104.319Z" fill="white"/>
<path d="M86.7173 102.998L85.9434 103.142L86.6719 107.073L87.4458 106.929L86.7173 102.998Z" fill="#1375ED"/>
<path opacity="0.3" d="M77.2969 105.317L76.5229 105.461L77.2522 109.392L78.0261 109.248L77.2969 105.317Z" fill="white"/>
<path opacity="0.3" d="M86.7173 102.998L85.9434 103.142L86.6719 107.073L87.4458 106.929L86.7173 102.998Z" fill="white"/>
<path d="M135.656 156.514C135.151 156.359 134.622 156.299 134.096 156.337C134.096 156.337 132.152 155.525 129.776 151.647L127.765 151.911C127.427 151.963 127.112 152.117 126.864 152.353C126.616 152.589 126.446 152.896 126.378 153.231C126.362 153.325 126.362 153.421 126.378 153.514C126.463 154.002 126.58 154.483 126.729 154.954C127.244 156.513 127.853 158.038 128.552 159.523L128.884 159.389L127.852 156.476C127.506 155.487 128.711 156.322 129.349 157.282C129.987 158.242 130.89 159.168 133.04 158.357C135.54 157.383 136.529 156.864 135.656 156.514Z" fill="#1375ED"/>
<path d="M129.279 150.621C129.279 150.621 132.509 155.521 134.079 156.337C134.079 156.337 132.303 157.777 129.932 155.464C126.87 152.502 126.361 153.515 126.361 153.515C126.334 152.935 126.361 152.353 126.443 151.778C126.697 150.655 129.279 150.621 129.279 150.621Z" fill="#E4897B"/>
<path d="M109.742 172.819C109.287 172.551 108.788 172.368 108.268 172.277C108.268 172.277 106.569 171.024 105.202 166.704L103.186 166.484C102.843 166.452 102.499 166.527 102.201 166.699C101.902 166.871 101.665 167.131 101.52 167.444C101.477 167.53 101.448 167.622 101.434 167.717C101.403 168.206 101.403 168.697 101.434 169.186C101.567 170.82 101.798 172.445 102.125 174.052L102.476 174L102.164 170.928C102.063 169.882 103.037 170.981 103.431 172.065C103.824 173.15 104.477 174.264 106.757 173.985C109.42 173.635 110.505 173.366 109.742 172.819Z" fill="#1375ED"/>
<path d="M104.953 165.58C104.953 165.58 106.93 171.109 108.274 172.275C108.274 172.275 106.21 173.235 104.434 170.447C102.16 166.838 101.42 167.706 101.42 167.706C101.529 167.136 101.689 166.577 101.9 166.036C102.438 164.999 104.953 165.58 104.953 165.58Z" fill="#E4897B"/>
<path d="M81.2402 64.5282C81.2402 64.5282 73.6619 60.847 71.1614 68.7757C68.6609 76.7044 71.8669 82.1757 71.8669 82.1757C71.8669 82.1757 80.6355 79.9296 88.017 81.499C88.017 81.499 86.4236 74.7414 86.8076 70.8634C87.1915 66.9855 81.2402 64.5282 81.2402 64.5282Z" fill="#263238"/>
<path d="M87.1528 82.4736C88.8182 82.5456 95.7918 91.9189 95.7918 91.9189L98.3835 88.5593C98.3835 88.5593 102.377 96.32 100.399 100.016C98.4219 103.711 88.0071 93.6131 88.0071 93.6131L87.1528 82.4736Z" fill="#1375ED"/>
<path opacity="0.6" d="M87.1479 82.4736L87.8295 89.9655L88.0022 93.6179C88.0022 93.6179 89.7156 95.2785 91.8802 97.0063C95.0622 99.5452 99.2185 102.223 100.394 100.025C102.372 96.3344 98.3738 88.5689 98.3738 88.5689L95.7869 91.9285V91.8997C95.3838 91.3238 88.7606 82.5456 87.1479 82.4736Z" fill="white"/>
<path opacity="0.2" d="M87.8291 89.9654L88.0019 93.6178C88.0019 93.6178 89.7153 95.2784 91.8798 97.0062C92.0862 92.6195 88.0019 86.2314 88.0019 86.2314L87.8291 89.9654Z" fill="black"/>
<path opacity="0.2" d="M95.7945 91.9188L95.4202 92.634L96.5048 96.8574C96.5048 96.8574 93.51 94.1314 95.4202 91.4629L95.7945 91.9188Z" fill="black"/>
<path d="M88.0228 90.8333C88.0228 90.9485 88.0228 91.0685 88.0228 91.1885C88.0228 91.7068 88.0228 92.2539 87.9892 92.8347C87.9892 92.8826 87.9892 92.9306 87.9892 92.9834C87.9892 93.2954 87.9892 93.617 87.9892 93.9433C87.9892 94.0009 87.9892 94.0537 87.9892 94.1113C87.9892 94.5912 87.9556 95.0712 87.9364 95.5511C87.9364 95.6183 87.9364 95.6855 87.9364 95.7527C87.9364 96.4054 87.8836 97.0917 87.85 97.8165C87.7732 99.4435 87.682 101.248 87.5668 103.249L87.3509 103.302L72.6886 106.777H72.631C72.631 106.777 73.2213 98.9347 72.2086 94.4953C72.2013 94.4563 72.1917 94.4179 72.1798 94.3801C72.1798 94.3129 72.151 94.2457 72.1319 94.1785C72.1127 94.1113 72.0647 93.9289 72.0359 93.7993C72.0071 93.6698 71.9687 93.5402 71.9303 93.4058C71.8007 92.9258 71.6615 92.4459 71.5127 91.918C71.4167 91.5724 71.3111 91.2172 71.2008 90.8525L71.1432 90.6701C71.0136 90.2382 70.8744 89.7918 70.7304 89.3311C70.6872 89.1967 70.6488 89.0671 70.6056 88.9279C70.3945 88.2704 70.1689 87.5745 69.9241 86.845C69.6553 86.0227 69.361 85.1508 69.041 84.2293C70.7225 83.6931 72.4361 83.2635 74.1716 82.943L74.9155 82.8086L75.7026 82.6791C77.0177 82.4679 78.3471 82.3191 79.6766 82.2231C80.2109 82.1847 80.7436 82.1559 81.2748 82.1367C81.5963 82.1367 81.9275 82.1367 82.2347 82.1367H82.369L83.3289 82.1655H83.7753H84.0584H84.3656L84.8455 82.1943H85.2103L85.8678 82.2375L86.127 82.2615H86.3574H86.5685H86.7413L87.1589 82.2999C87.1589 82.2999 87.1589 82.2999 87.1973 82.2999L87.2309 82.3335C87.263 82.3717 87.2903 82.4136 87.3125 82.4583C87.4599 82.7708 87.5649 83.1017 87.6244 83.4422C87.6244 83.5382 87.6628 83.6437 87.6868 83.7589C87.7108 83.8741 87.7444 84.1189 87.778 84.3301C87.8116 84.5412 87.8212 84.6372 87.8404 84.81C87.8596 84.9828 87.874 85.122 87.8884 85.2899C88.0304 87.1341 88.0753 88.9844 88.0228 90.8333Z" fill="#263238"/>
<path d="M80.0647 85.3144C76.5707 84.868 75.5244 83.3706 75.5244 83.3706C76.9642 82.0267 76.6907 80.0446 76.3259 78.8063C76.2161 78.4135 76.0716 78.0312 75.894 77.6641L80.0983 78.4512C80.0005 79.0351 79.946 79.6254 79.9351 80.2174C79.9193 80.6543 79.9596 81.0914 80.0551 81.518C80.3382 82.7755 81.0534 82.7947 81.0534 82.7947C81.7925 84.1721 80.0647 85.3144 80.0647 85.3144Z" fill="#E4897B"/>
<path opacity="0.2" d="M79.9303 80.2174C79.9145 80.6543 79.9548 81.0914 80.0503 81.518C78.3801 81.302 77.1178 79.963 76.3211 78.8063C76.2113 78.4135 76.0668 78.0312 75.8892 77.6641L80.0935 78.4512C79.9957 79.0351 79.9412 79.6254 79.9303 80.2174Z" fill="black"/>
<path d="M81.0473 66.6582C84.9156 67.4453 85.7363 69.773 85.2084 73.8142C84.546 78.868 82.7223 82.1796 78.1004 80.1302C71.8323 77.3465 74.6256 65.348 81.0473 66.6582Z" fill="#E4897B"/>
<path d="M82.7569 73.0908C82.9496 73.7319 83.2187 74.3474 83.5584 74.9242C83.4119 75.0597 83.2311 75.1524 83.0356 75.1922C82.8401 75.232 82.6374 75.2173 82.4497 75.1498L82.7569 73.0908Z" fill="#DE5753"/>
<path d="M79.1863 70.0284C79.1608 70.0283 79.1355 70.0227 79.1123 70.0119C79.0891 70.0011 79.0685 69.9855 79.0519 69.966C79.0352 69.9503 79.0219 69.9313 79.0128 69.9103C79.0037 69.8892 78.999 69.8666 78.999 69.8436C78.999 69.8207 79.0037 69.798 79.0128 69.777C79.0219 69.7559 79.0352 69.737 79.0519 69.7212C79.3347 69.5248 79.6597 69.3976 80.0008 69.3501C80.3418 69.3026 80.6892 69.336 81.0149 69.4477C81.0363 69.4552 81.0561 69.4669 81.073 69.4821C81.0899 69.4973 81.1036 69.5157 81.1134 69.5362C81.1232 69.5567 81.1289 69.5789 81.1301 69.6016C81.1313 69.6243 81.1281 69.647 81.1205 69.6685C81.1129 69.6899 81.1012 69.7096 81.086 69.7265C81.0708 69.7434 81.0525 69.7572 81.032 69.767C81.0115 69.7768 80.9892 69.7824 80.9666 69.7837C80.9439 69.7849 80.9212 69.7816 80.8997 69.774C80.6294 69.6875 80.3433 69.662 80.062 69.6994C79.7806 69.7367 79.5111 69.836 79.2727 69.99C79.2476 70.0098 79.2179 70.023 79.1863 70.0284Z" fill="#263238"/>
<path d="M85.2744 70.8293C85.229 70.8282 85.1859 70.8092 85.1544 70.7765C84.9895 70.5873 84.7848 70.4366 84.555 70.3354C84.3253 70.2342 84.076 70.1849 83.825 70.191C83.8025 70.1951 83.7795 70.1946 83.7573 70.1895C83.735 70.1844 83.7141 70.1748 83.6957 70.1613C83.6772 70.1478 83.6618 70.1308 83.6502 70.1111C83.6386 70.0915 83.6311 70.0697 83.6282 70.047C83.6241 70.0246 83.6246 70.0015 83.6297 69.9793C83.6348 69.9571 83.6444 69.9361 83.6579 69.9177C83.6714 69.8993 83.6885 69.8838 83.7081 69.8722C83.7278 69.8606 83.7496 69.8531 83.7722 69.8502C84.0774 69.832 84.3828 69.8839 84.6648 70.0021C84.9469 70.1202 85.1981 70.3014 85.3992 70.5318C85.4153 70.5478 85.4281 70.5669 85.4368 70.5879C85.4455 70.6089 85.45 70.6314 85.45 70.6542C85.45 70.6769 85.4455 70.6994 85.4368 70.7204C85.4281 70.7414 85.4153 70.7605 85.3992 70.7765C85.3659 70.8095 85.3213 70.8284 85.2744 70.8293Z" fill="#263238"/>
<path d="M75.4944 72.3129C75.4944 72.3129 77.9518 69.5052 78.1773 66.9951C78.1773 66.9951 86.4755 65.4305 85.2709 73.2872C85.2709 73.2872 87.4258 66.5296 80.8122 65.0225C74.1986 63.5155 72.2404 73.244 75.0817 76.8387C75.0817 76.8387 73.9682 74.0743 75.4944 72.3129Z" fill="#263238"/>
<path d="M75.961 73.2579C75.9878 73.0325 75.9699 72.8041 75.9085 72.5857C75.847 72.3673 75.7431 72.1631 75.6027 71.9848C75.4623 71.8066 75.2882 71.6577 75.0903 71.5467C74.8923 71.4358 74.6745 71.3649 74.4492 71.3381C73.2253 71.2229 72.1502 73.565 75.0107 74.7649C75.4235 74.9377 75.7498 74.5681 75.961 73.2579Z" fill="#E4897B"/>
<path d="M82.3356 76.3121C82.0067 76.666 81.7036 77.0429 81.4285 77.4399L81.1981 77.3248C80.1614 76.816 79.8495 76.2401 79.8159 75.7553C79.8075 75.5157 79.8551 75.2774 79.9551 75.0594C80.0078 74.9354 80.0773 74.8191 80.1614 74.7139C80.6584 75.3197 81.2806 75.8109 81.9852 76.1537C82.2012 76.2497 82.3356 76.3121 82.3356 76.3121Z" fill="#263238"/>
<path d="M81.9843 76.1345L81.7107 76.4609C80.7508 75.9809 80.1125 75.501 79.9541 75.0594C80.0069 74.9354 80.0763 74.8191 80.1605 74.7139C80.6594 75.3128 81.2815 75.7973 81.9843 76.1345Z" fill="white"/>
<path d="M81.1972 77.3233C80.1605 76.8146 79.8485 76.2386 79.8149 75.7539C80.2081 75.9511 80.5613 76.2196 80.8564 76.5458C81.0496 76.7623 81.1689 77.0346 81.1972 77.3233Z" fill="#DE5753"/>
<path d="M80.9149 66.9283C80.9149 66.9283 78.0352 72.9756 74.0709 72.0781C70.1066 71.1806 77.9104 64.399 77.9104 64.399C77.9104 64.399 84.9512 63.2519 87.4661 67.4082C89.981 71.5646 85.2776 73.3116 85.2776 73.3116C85.2776 73.3116 86.5254 68.4065 80.9149 66.9283Z" fill="#263238"/>
<path d="M77.0693 71.9156C77.0429 71.9146 77.0175 71.9052 76.9968 71.8888C76.9761 71.8724 76.9612 71.8499 76.9541 71.8244C76.9498 71.8093 76.9486 71.7934 76.9507 71.7778C76.9528 71.7622 76.958 71.7472 76.9661 71.7338C76.9742 71.7203 76.985 71.7086 76.9978 71.6994C77.0106 71.6902 77.0251 71.6838 77.0405 71.6804C80.4001 70.8309 80.8416 66.5067 80.8464 66.4635C80.85 66.4325 80.8656 66.4041 80.8898 66.3844C80.914 66.3647 80.9449 66.3552 80.976 66.3579C80.9919 66.3583 81.0074 66.3622 81.0217 66.3692C81.0359 66.3762 81.0484 66.3862 81.0585 66.3985C81.0685 66.4108 81.0757 66.4251 81.0797 66.4405C81.0837 66.4558 81.0843 66.4718 81.0816 66.4875C81.0816 66.5307 80.6016 71.0229 77.0981 71.9108L77.0693 71.9156Z" fill="#263238"/>
<path d="M80.4973 72.4991C80.4973 72.8063 80.3101 73.0463 80.1086 73.0415C79.907 73.0367 79.7438 72.7775 79.7582 72.4703C79.7726 72.1632 79.9454 71.9184 80.1518 71.928C80.3581 71.9376 80.5117 72.2064 80.4973 72.4991Z" fill="#263238"/>
<path d="M80.0596 71.9383L80.7363 71.7031C80.7363 71.7031 80.3811 72.2551 80.0596 71.9383Z" fill="#263238"/>
<path d="M84.3171 72.5861C84.3171 72.8933 84.1251 73.1381 83.9235 73.1285C83.722 73.1189 83.5636 72.8645 83.5732 72.5573C83.5828 72.2502 83.7603 72.0102 83.9667 72.0198C84.1731 72.0294 84.3267 72.279 84.3171 72.5861Z" fill="#263238"/>
<path d="M83.875 72.0291L84.5517 71.7939C84.5517 71.7939 84.1966 72.3411 83.875 72.0291Z" fill="#263238"/>
<path d="M89.6898 88.6598C89.6828 88.7111 89.6871 88.7633 89.7023 88.8128C89.7176 88.8623 89.7436 88.9079 89.7783 88.9463C89.8131 88.9847 89.8558 89.015 89.9035 89.0352C89.9513 89.0553 90.0028 89.0648 90.0546 89.0629H94.0669C94.1778 89.0588 94.2838 89.0163 94.3669 88.9428C94.4501 88.8693 94.5052 88.7693 94.5228 88.6598L95.4155 80.7407C95.4273 80.6851 95.4271 80.6276 95.4149 80.5721C95.4026 80.5167 95.3786 80.4644 95.3445 80.419C95.3104 80.3735 95.267 80.3359 95.2172 80.3086C95.1673 80.2813 95.1122 80.265 95.0556 80.2607H91.0433C90.9232 80.275 90.8119 80.3308 90.7287 80.4185C90.6454 80.5061 90.5954 80.6201 90.5873 80.7407L89.6898 88.6598Z" fill="#263238"/>
<path opacity="0.5" d="M91.0295 80.6882L90.1176 88.6841C90.1062 88.7308 90.106 88.7795 90.1169 88.8263C90.1278 88.8731 90.1495 88.9167 90.1803 88.9535C90.2111 88.9904 90.2502 89.0196 90.2943 89.0386C90.3384 89.0577 90.3864 89.0661 90.4343 89.0632H93.8371C94.0675 89.0632 94.4851 88.9384 94.5091 88.7129L95.4209 80.6882C95.4209 80.4626 95.0562 80.2803 94.8258 80.2803H91.423C91.3177 80.2852 91.2183 80.3302 91.1451 80.406C91.072 80.4819 91.0306 80.5828 91.0295 80.6882Z" fill="white"/>
<path d="M98.0982 89.3215L96.0056 85.7699C96.0221 84.9981 95.9626 84.2265 95.828 83.4662C95.6457 83.0247 93.5963 82.0264 93.1931 82.18C92.79 82.3336 92.646 85.9907 93.0108 86.4995C93.3755 87.0082 94.657 87.5409 94.657 87.5409L94.5706 88.2369L95.7944 91.9324L98.0982 89.3215Z" fill="#E4897B"/>
<path d="M98.9346 88.9176L98.2435 88.2217L94.9463 91.9172L95.4166 93.3811L98.9346 88.9176Z" fill="#1375ED"/>
<path d="M82.2242 81.4902L81.8066 83.0261L82.6561 84.2739L84.5375 101.821L89.6873 101.062C89.3322 87.3887 89.2074 87.3167 87.2204 82.3973L82.6081 82.0758L82.2242 81.4902Z" fill="#1375ED"/>
<path opacity="0.6" d="M82.2242 81.4902L81.8066 83.0261L82.6561 84.2739L84.5375 101.821L89.6873 101.062C89.3322 87.3887 89.2074 87.3167 87.2204 82.3973L82.6081 82.0758L82.2242 81.4902Z" fill="white"/>
<path d="M73.8171 81.4902L78.3909 83.41L77.2679 85.3298L78.3765 103.294L71.4462 105.324C71.4462 105.324 66.4163 92.1258 68.9936 84.2931L73.5339 82.9829L73.8171 81.4902Z" fill="#1375ED"/>
<path opacity="0.6" d="M78.1992 100.434L78.3768 103.28L75.286 104.182L71.4464 105.305C70.0278 101.402 69.0366 97.3562 68.49 93.2393C68.1204 90.1148 68.13 86.8944 68.9939 84.2739L73.5342 82.9637L73.8173 81.4902L78.3912 83.41L77.2681 85.3298L77.7097 92.4617L78.1992 100.434Z" fill="white"/>
<path opacity="0.2" d="M82.254 94.8219C82.254 94.8219 80.531 97.332 78.1985 100.432C77.2962 101.632 76.2787 102.919 75.2853 104.181L71.4457 105.304C70.0271 101.401 69.0358 97.355 68.4893 93.2381C70.3706 91.3519 72.6744 89.0674 72.6744 89.0674C72.6744 89.0674 73.7302 92.331 73.2647 95.1675L77.709 92.4462L79.0912 91.6015L82.254 94.8219Z" fill="black"/>
<path d="M78.5049 92.7978L83.2611 89.0638C83.5366 88.2562 83.8752 87.4714 84.2738 86.7169C84.5618 86.3665 88.7325 84.8307 89.0732 84.7971C89.414 84.7635 89.0732 88.2143 88.5501 88.7999C88.027 89.3854 84.6722 90.5468 84.6722 90.5468L79.6999 95.2455L78.5049 92.7978Z" fill="#E4897B"/>
<path d="M68.9926 84.2734C66.1993 85.6749 64.9563 101.446 69.8085 104.167C74.6607 106.888 81.9031 94.5682 81.9031 94.5682L79.0858 91.5782C79.0858 91.5782 73.1825 96.5216 72.4722 96.0656C71.7619 95.6097 72.5682 90.7863 72.5682 90.7863C72.5682 90.7863 73.3985 89.3464 71.6515 87.0283C69.9045 84.7102 68.9926 84.2734 68.9926 84.2734Z" fill="#1375ED"/>
<path opacity="0.6" d="M68.9926 84.2734C66.1993 85.6749 64.9563 101.446 69.8085 104.167C74.6607 106.888 81.9031 94.5682 81.9031 94.5682L79.0858 91.5782C79.0858 91.5782 73.1825 96.5216 72.4722 96.0656C71.7619 95.6097 72.5682 90.7863 72.5682 90.7863C72.5682 90.7863 73.3985 89.3464 71.6515 87.0283C69.9045 84.7102 68.9926 84.2734 68.9926 84.2734Z" fill="white"/>
<path d="M81.9605 95.6821L82.8052 95.1734L79.6424 90.5371L78.481 91.185L81.9605 95.6821Z" fill="#1375ED"/>
<path d="M261.909 185.899C262.717 185.889 263.512 185.797 264.287 185.63C265.061 185.462 265.815 185.218 266.539 184.901C267.262 184.585 267.956 184.195 268.611 183.737C269.267 183.28 269.884 182.753 270.454 182.161C271.023 181.57 271.529 180.931 271.967 180.254C272.405 179.577 272.775 178.862 273.075 178.118C273.374 177.374 273.602 176.6 273.755 175.806C273.908 175.012 273.986 174.198 273.986 173.372V30.473C273.986 29.6472 273.908 28.8329 273.755 28.039C273.602 27.245 273.374 26.4714 273.075 25.727C272.775 24.9827 272.405 24.2676 271.967 23.5907C271.529 22.9138 271.023 22.2751 270.454 21.6836C269.884 21.0921 269.267 20.5654 268.611 20.1075C267.956 19.6495 267.262 19.2602 266.539 18.9436C265.815 18.6268 265.061 18.3827 264.287 18.2151C263.512 18.0475 262.717 17.9563 261.909 17.9455L27.6088 14.816C26.7393 14.8043 25.8826 14.8765 25.0481 15.0287C24.2133 15.1809 23.4008 15.4132 22.62 15.7219C21.839 16.0307 21.0896 16.4159 20.3815 16.8738C19.6732 17.3318 19.0061 17.8626 18.3896 18.4623C17.7731 19.0622 17.2257 19.7131 16.7513 20.4059C16.277 21.0987 15.8757 21.8334 15.5516 22.6005C15.2274 23.3677 14.9803 24.1674 14.8143 24.9903C14.6482 25.8132 14.5633 26.6592 14.5633 27.5192V176.326C14.5633 177.186 14.6482 178.032 14.8143 178.855C14.9803 179.678 15.2274 180.477 15.5516 181.244C15.8757 182.012 16.277 182.746 16.7513 183.439C17.2257 184.132 17.7731 184.783 18.3896 185.383C19.0061 185.982 19.6732 186.513 20.3815 186.971C21.0896 187.429 21.839 187.814 22.62 188.123C23.4008 188.432 24.2133 188.664 25.0481 188.816C25.8826 188.968 26.7393 189.041 27.6088 189.029L261.909 185.899ZM261.909 190.029L27.6088 193.313C25.2111 193.346 22.9253 192.899 20.8448 192.06C18.763 191.22 16.887 189.989 15.3108 188.457C13.7337 186.924 12.457 185.09 11.5743 183.046C10.6914 181.002 10.2031 178.748 10.2031 176.375V27.4695C10.2031 25.0973 10.6914 22.8432 11.5743 20.7988C12.457 18.7549 13.7337 16.921 15.3108 15.3881C16.887 13.8559 18.763 12.6248 20.8448 11.7852C22.9253 10.9462 25.2111 10.4984 27.6088 10.532L261.909 13.8155C264.136 13.8467 266.256 14.3384 268.183 15.2003C270.108 16.0618 271.842 17.2932 273.297 18.8049C274.751 20.3159 275.927 22.1071 276.74 24.0892C277.553 26.0708 278.002 28.2437 278.002 30.5188V173.326C278.002 175.601 277.553 177.774 276.74 179.756C275.927 181.738 274.751 183.529 273.297 185.04C271.842 186.552 270.108 187.783 268.183 188.645C266.256 189.507 264.136 189.998 261.909 190.029Z" fill="white"/>
</g>
<defs>
<filter id="filter0_d_740_2234" x="0.203125" y="0.529297" width="299.799" height="214.786" filterUnits="userSpaceOnUse" color-interpolation-filters="sRGB">
<feFlood flood-opacity="0" result="BackgroundImageFix"/>
<feColorMatrix in="SourceAlpha" type="matrix" values="0 0 0 0 0 0 0 0 0 0 0 0 0 0 0 0 0 0 127 0" result="hardAlpha"/>
<feOffset dx="6" dy="6"/>
<feGaussianBlur stdDeviation="8"/>
<feColorMatrix type="matrix" values="0 0 0 0 0 0 0 0 0 0 0 0 0 0 0 0 0 0 0.08 0"/>
<feBlend mode="normal" in2="BackgroundImageFix" result="effect1_dropShadow_740_2234"/>
<feBlend mode="normal" in="SourceGraphic" in2="effect1_dropShadow_740_2234" result="shape"/>
</filter>
</defs>
</svg>
