<svg width="292" height="149" viewBox="0 0 292 149" fill="none" xmlns="http://www.w3.org/2000/svg">
<g filter="url(#filter0_d_740_1912)">
<g filter="url(#filter1_d_740_1912)">
<path d="M27.841 11.8076L250.274 10.0011C252.77 9.97373 255.247 10.4386 257.562 11.3691C259.878 12.2997 261.988 13.6776 263.77 15.4242C265.547 17.1586 266.958 19.2312 267.921 21.5198C268.884 23.8084 269.378 26.2667 269.375 28.7495V107.759C269.378 110.242 268.884 112.701 267.921 114.989C266.958 117.278 265.547 119.35 263.77 121.085C261.988 122.831 259.878 124.209 257.562 125.14C255.247 126.07 252.77 126.535 250.274 126.508L27.841 124.701C25.444 124.684 23.0759 124.177 20.8824 123.21C18.7553 122.271 16.8301 120.929 15.2125 119.258C11.8591 115.795 9.98902 111.16 10 106.339V30.1737C9.98905 25.3511 11.8605 20.7147 15.2162 17.2511C16.8338 15.5805 18.7591 14.2383 20.8861 13.2986C23.0785 12.3326 25.4453 11.8252 27.841 11.8076Z" fill="white"/>
</g>
<path d="M49.0651 40.058L228.111 39.3343C230.285 39.3209 232.44 39.7359 234.453 40.5556C236.466 41.3753 238.298 42.5837 239.844 44.1116C241.387 45.6337 242.612 47.4472 243.449 49.4468C244.285 51.4463 244.715 53.5921 244.715 55.7594C244.715 57.9268 244.285 60.0725 243.449 62.072C242.612 64.0716 241.387 65.8851 239.844 67.4072C236.725 70.5023 232.506 72.2349 228.111 72.2253L49.0651 72.1261C46.9592 72.1272 44.8753 71.6975 42.9415 70.8633C41.0705 70.0535 39.3749 68.8876 37.949 67.4304C36.5134 65.9658 35.372 64.2395 34.5866 62.345C33.3673 59.4113 33.0359 56.1843 33.6334 53.064C34.2309 49.9437 35.7312 47.0674 37.948 44.7917C39.3737 43.33 41.0692 42.1586 42.9406 41.3421C44.8734 40.5014 46.9575 40.0644 49.0651 40.058Z" fill="#1375ED"/>
<path d="M59.4293 48.2753L216.299 47.8263C217.965 47.8183 219.597 48.3017 220.99 49.2159C222.383 50.1301 223.475 51.4346 224.131 52.9664C224.573 54.0072 224.8 55.1263 224.8 56.2569C224.8 57.3875 224.573 58.5065 224.131 59.5474C223.476 61.0817 222.384 62.3896 220.992 63.3083C219.599 64.227 217.967 64.7159 216.299 64.7144L59.4293 64.7914C58.3426 64.7923 57.2673 64.5713 56.2691 64.1419C55.3036 63.7269 54.4279 63.1282 53.6907 62.379C52.1628 60.823 51.3098 58.7275 51.3164 56.5468C51.3111 54.3644 52.1638 52.2674 53.6907 50.7081C54.4274 49.9554 55.303 49.3526 56.2691 48.9332C57.2668 48.5012 58.3421 48.2773 59.4293 48.2753Z" fill="#3193FF"/>
<path d="M49.7048 81.4161L228.784 81.7575C232.042 81.7601 235.228 82.7178 237.947 84.5121C240.667 86.3065 242.8 88.8587 244.084 91.8531C245.375 94.8703 245.725 98.2066 245.09 101.426C244.454 104.646 242.862 107.599 240.522 109.899C238.975 111.424 237.142 112.628 235.128 113.443C233.114 114.258 230.959 114.668 228.787 114.649L49.7048 113.489C47.5965 113.477 45.5128 113.035 43.5812 112.19C41.7091 111.368 40.0134 110.193 38.5877 108.727C36.3768 106.446 34.8807 103.568 34.2831 100.448C33.6856 97.3275 34.0128 94.1006 35.2244 91.1637C36.009 89.2707 37.1502 87.5462 38.5859 86.0839C40.0123 84.63 41.7084 83.4681 43.5794 82.6631C45.5146 81.8336 47.5993 81.4093 49.7048 81.4161Z" fill="#1375ED"/>
<path d="M60.0714 89.6944L216.971 90.176C218.641 90.1795 220.274 90.6727 221.667 91.5947C223.06 92.5167 224.153 93.827 224.809 95.3634C225.242 96.3859 225.469 97.4843 225.476 98.5949C225.483 99.7056 225.27 100.807 224.849 101.835C224.428 102.862 223.808 103.797 223.024 104.584C222.24 105.371 221.308 105.994 220.282 106.419C219.234 106.855 218.109 107.076 216.974 107.069L60.0714 106.212C58.9834 106.207 57.9078 105.981 56.9104 105.546C55.9437 105.124 55.0679 104.519 54.3311 103.764C53.189 102.589 52.4159 101.106 52.1072 99.497C51.7986 97.8881 51.9679 96.224 52.5942 94.7102C53.0002 93.7346 53.5902 92.8463 54.332 92.0938C55.069 91.344 55.9451 90.7452 56.9113 90.3309C57.9103 89.9056 58.9857 89.689 60.0714 89.6944Z" fill="#3193FF"/>
<path d="M37.8314 19.8175C38.4311 19.8124 39.0254 19.9305 39.5776 20.1645C40.112 20.3919 40.5967 20.7216 41.0046 21.135C41.4155 21.5514 41.7422 22.0432 41.9667 22.5834C42.3151 23.423 42.4096 24.3464 42.2386 25.2392C42.0676 26.132 41.6386 26.9551 41.0046 27.6066C40.5972 28.0252 40.1126 28.3611 39.5776 28.5956C38.7582 28.955 37.8489 29.0563 36.9705 28.8863C36.0921 28.7163 35.2863 28.2828 34.6602 27.6437C34.2507 27.2272 33.9253 26.7358 33.7017 26.1963C33.3541 25.3574 33.2598 24.4351 33.4305 23.5432C33.6011 22.6514 34.0293 21.829 34.662 21.1777C35.0686 20.7594 35.5522 20.4235 36.0862 20.1887C36.6366 19.9474 37.2305 19.8211 37.8314 19.8175Z" fill="#1375ED"/>
<path d="M202.17 18.673C203.091 18.6646 203.994 18.929 204.765 19.4329C205.536 19.9369 206.14 20.6578 206.502 21.5047C206.746 22.0818 206.872 22.7019 206.872 23.3284C206.872 23.9549 206.746 24.575 206.502 25.152C206.141 26.0037 205.538 26.731 204.768 27.2439C203.998 27.7567 203.095 28.0326 202.17 28.0375C201.25 28.0443 200.349 27.7789 199.579 27.2748C198.81 26.7706 198.206 26.0501 197.845 25.2039C197.602 24.6276 197.477 24.0083 197.477 23.3826C197.477 22.757 197.602 22.1377 197.845 21.5613C198.205 20.7102 198.807 19.9831 199.575 19.4699C200.344 18.9566 201.246 18.6796 202.17 18.673Z" fill="#1375ED"/>
<path d="M55.8165 19.6916C56.4193 19.6864 57.0167 19.8048 57.572 20.0395C58.1087 20.2674 58.5956 20.598 59.0054 21.0128C59.4185 21.43 59.7471 21.923 59.9732 22.4648C60.3231 23.3067 60.418 24.2329 60.2459 25.1283C60.0739 26.0237 59.6425 26.8487 59.0054 27.501C58.5959 27.9205 58.1092 28.257 57.572 28.4919C56.7486 28.8522 55.8353 28.9539 54.9528 28.7836C54.0704 28.6133 53.2605 28.179 52.6304 27.5381C52.2185 27.121 51.8908 26.6283 51.6655 26.087C51.3154 25.2455 51.2202 24.3196 51.3917 23.4245C51.5633 22.5293 51.994 21.7042 52.6304 21.0517C53.0399 20.6333 53.5263 20.2978 54.063 20.0636C54.6162 19.8218 55.2128 19.6952 55.8165 19.6916Z" fill="#1375ED"/>
<path d="M221.021 18.5412C221.639 18.5354 222.253 18.6519 222.826 18.8839C223.399 19.1158 223.921 19.4588 224.361 19.893C225.026 20.5501 225.479 21.3917 225.659 22.3089C225.84 23.2261 225.742 24.1765 225.376 25.0369C224.885 26.1889 223.959 27.1008 222.8 27.5753C221.641 28.0497 220.341 28.0484 219.183 27.5716C218.054 27.1035 217.153 26.2125 216.671 25.0888C216.427 24.5111 216.301 23.8902 216.301 23.2629C216.301 22.6355 216.427 22.0146 216.671 21.4369C217.035 20.5826 217.64 19.8532 218.413 19.3387C219.186 18.8242 220.093 18.5469 221.021 18.5412Z" fill="#1375ED"/>
<path d="M73.8974 19.5656C74.5026 19.5606 75.1025 19.6793 75.6602 19.9144C76.1998 20.1427 76.6896 20.4743 77.102 20.8905C77.5169 21.3085 77.8471 21.8029 78.0744 22.3462C78.4261 23.1903 78.5214 24.1193 78.3485 25.0172C78.1756 25.9152 77.742 26.7423 77.102 27.3954C76.6902 27.8163 76.2009 28.1537 75.6611 28.3891C74.8336 28.7504 73.916 28.8523 73.0294 28.6816C72.1427 28.5108 71.3287 28.0753 70.6945 27.4325C70.2804 27.0146 69.9509 26.5206 69.724 25.9777C69.3734 25.1345 69.2785 24.2068 69.4511 23.31C69.6236 22.4132 70.0561 21.587 70.6945 20.9341C71.1058 20.5131 71.5944 20.1754 72.1336 19.9395C72.6901 19.6965 73.2902 19.5693 73.8974 19.5656Z" fill="#1375ED"/>
<path d="M239.966 18.4104C240.588 18.4046 241.205 18.5216 241.781 18.7547C242.358 18.9878 242.883 19.3323 243.326 19.7687C243.994 20.4263 244.448 21.2698 244.631 22.1894C244.813 23.1089 244.714 24.062 244.346 24.9246C243.849 26.0804 242.917 26.9945 241.752 27.4695C240.587 27.9446 239.282 27.9426 238.118 27.464C236.983 26.9958 236.076 26.1024 235.592 24.9747C235.346 24.3955 235.219 23.7728 235.219 23.1436C235.219 22.5144 235.346 21.8917 235.592 21.3126C235.959 20.4552 236.568 19.7238 237.345 19.2082C238.123 18.6926 239.034 18.4153 239.966 18.4104Z" fill="#1375ED"/>
</g>
<defs>
<filter id="filter0_d_740_1912" x="6" y="10" width="267.375" height="124.509" filterUnits="userSpaceOnUse" color-interpolation-filters="sRGB">
<feFlood flood-opacity="0" result="BackgroundImageFix"/>
<feColorMatrix in="SourceAlpha" type="matrix" values="0 0 0 0 0 0 0 0 0 0 0 0 0 0 0 0 0 0 127 0" result="hardAlpha"/>
<feOffset dy="4"/>
<feGaussianBlur stdDeviation="2"/>
<feComposite in2="hardAlpha" operator="out"/>
<feColorMatrix type="matrix" values="0 0 0 0 0 0 0 0 0 0 0 0 0 0 0 0 0 0 0.25 0"/>
<feBlend mode="normal" in2="BackgroundImageFix" result="effect1_dropShadow_740_1912"/>
<feBlend mode="normal" in="SourceGraphic" in2="effect1_dropShadow_740_1912" result="shape"/>
</filter>
<filter id="filter1_d_740_1912" x="0" y="0" width="291.375" height="148.509" filterUnits="userSpaceOnUse" color-interpolation-filters="sRGB">
<feFlood flood-opacity="0" result="BackgroundImageFix"/>
<feColorMatrix in="SourceAlpha" type="matrix" values="0 0 0 0 0 0 0 0 0 0 0 0 0 0 0 0 0 0 127 0" result="hardAlpha"/>
<feOffset dx="6" dy="6"/>
<feGaussianBlur stdDeviation="8"/>
<feComposite in2="hardAlpha" operator="out"/>
<feColorMatrix type="matrix" values="0 0 0 0 0 0 0 0 0 0 0 0 0 0 0 0 0 0 0.08 0"/>
<feBlend mode="normal" in2="BackgroundImageFix" result="effect1_dropShadow_740_1912"/>
<feBlend mode="normal" in="SourceGraphic" in2="effect1_dropShadow_740_1912" result="shape"/>
</filter>
</defs>
</svg>
