<svg width="291" height="128" viewBox="0 0 291 128" fill="none" xmlns="http://www.w3.org/2000/svg">
<g filter="url(#filter0_d_740_2453)">
<path d="M27.8152 12.303L249.927 10.83C252.419 10.8077 254.892 11.1867 257.204 11.9455C259.516 12.7042 261.623 13.8278 263.403 15.2519C265.177 16.6661 266.587 18.3561 267.548 20.2222C268.509 22.0883 269.003 24.0928 269 26.1172V90.541C269.003 92.5654 268.509 94.5699 267.548 96.436C266.587 98.3021 265.177 99.9921 263.403 101.406C261.623 102.83 259.516 103.954 257.204 104.713C254.892 105.471 252.419 105.851 249.927 105.828L27.8152 104.355C25.4217 104.341 23.057 103.928 20.8666 103.139C18.7427 102.373 16.8202 101.279 15.205 99.9166C11.8564 97.0927 9.98904 93.3135 10 89.3827V27.2785C9.98906 23.3462 11.8578 19.5657 15.2087 16.7416C16.8239 15.3794 18.7464 14.285 20.8703 13.5187C23.0596 12.7311 25.4229 12.3174 27.8152 12.303Z" fill="white"/>
</g>
<path d="M37.8276 20.6886C38.4272 20.6835 39.0216 20.8015 39.5737 21.0352C40.1081 21.2623 40.5929 21.5916 41.0007 22.0046C41.4116 22.4205 41.7383 22.9116 41.9628 23.4512C42.3112 24.2898 42.4057 25.2121 42.2347 26.1038C42.0637 26.9956 41.6347 27.8177 41.0007 28.4684C40.5933 28.8866 40.1087 29.222 39.5737 29.4563C38.7543 29.8152 37.845 29.9165 36.9666 29.7466C36.0882 29.5768 35.2823 29.1439 34.6563 28.5055C34.2468 28.0895 33.9214 27.5987 33.6978 27.0598C33.3502 26.2219 33.2559 25.3007 33.4266 24.4099C33.5972 23.5191 34.0254 22.6977 34.6581 22.0472C35.0647 21.6293 35.5483 21.2939 36.0823 21.0593C36.6327 20.8183 37.2266 20.6922 37.8276 20.6886Z" fill="#1375ED"/>
<path d="M202.166 19.5451C203.087 19.5367 203.99 19.8008 204.761 20.3041C205.532 20.8074 206.136 21.5275 206.498 22.3734C206.742 22.9498 206.868 23.5692 206.868 24.1949C206.868 24.8207 206.742 25.44 206.498 26.0164C206.137 26.8671 205.534 27.5935 204.764 28.1058C203.994 28.618 203.091 28.8936 202.166 28.8984C201.246 28.9053 200.345 28.6402 199.575 28.1366C198.806 27.633 198.202 26.9134 197.841 26.0683C197.598 25.4926 197.473 24.874 197.473 24.2491C197.473 23.6242 197.598 23.0057 197.841 22.43C198.201 21.5799 198.803 20.8536 199.571 20.341C200.34 19.8283 201.242 19.5516 202.166 19.5451Z" fill="#1375ED"/>
<path d="M55.8205 20.5617C56.4232 20.5565 57.0207 20.6748 57.5759 20.9092C58.1126 21.1368 58.5996 21.467 59.0094 21.8813C59.4224 22.298 59.751 22.7905 59.9771 23.3316C60.327 24.1725 60.4219 25.0976 60.2499 25.9919C60.0778 26.8863 59.6464 27.7104 59.0094 28.3618C58.5998 28.7809 58.1131 29.117 57.5759 29.3516C56.7526 29.7115 55.8392 29.8131 54.9568 29.643C54.0743 29.4728 53.2644 29.039 52.6343 28.3989C52.2224 27.9823 51.8947 27.4901 51.6694 26.9495C51.3193 26.109 51.2241 25.1842 51.3956 24.2901C51.5672 23.396 51.9979 22.572 52.6343 21.9202C53.0438 21.5023 53.5303 21.1672 54.0669 20.9333C54.6201 20.6917 55.2167 20.5653 55.8205 20.5617Z" fill="#1375ED"/>
<path d="M221.017 19.4143C221.636 19.4085 222.249 19.5248 222.822 19.7565C223.395 19.9882 223.917 20.3308 224.357 20.7645C225.022 21.4208 225.475 22.2614 225.656 23.1775C225.837 24.0936 225.738 25.0428 225.372 25.9022C224.881 27.0528 223.955 27.9637 222.796 28.4376C221.637 28.9115 220.337 28.9102 219.179 28.434C218.05 27.9664 217.149 27.0764 216.668 25.9541C216.423 25.3771 216.297 24.7569 216.297 24.1303C216.297 23.5037 216.423 22.8835 216.668 22.3065C217.031 21.4532 217.636 20.7247 218.409 20.2108C219.182 19.6969 220.089 19.42 221.017 19.4143Z" fill="#1375ED"/>
<path d="M73.8974 20.4357C74.5026 20.4307 75.1025 20.5493 75.6602 20.7841C76.1998 21.0122 76.6896 21.3433 77.1021 21.759C77.517 22.1766 77.8471 22.6703 78.0744 23.2131C78.4261 24.0562 78.5214 24.984 78.3485 25.8809C78.1756 26.7777 77.7421 27.6039 77.1021 28.2562C76.6902 28.6766 76.2009 29.0136 75.6612 29.2487C74.8336 29.6096 73.916 29.7114 73.0294 29.5409C72.1428 29.3703 71.3287 28.9353 70.6945 28.2933C70.2804 27.8759 69.9509 27.3825 69.724 26.8402C69.3734 25.998 69.2785 25.0714 69.4511 24.1757C69.6236 23.28 70.0561 22.4547 70.6945 21.8026C71.1058 21.3821 71.5944 21.0448 72.1336 20.8092C72.6901 20.5665 73.2902 20.4394 73.8974 20.4357Z" fill="#1375ED"/>
<path d="M239.962 19.2834C240.584 19.2776 241.201 19.3945 241.777 19.6273C242.354 19.8601 242.879 20.2043 243.322 20.6401C243.99 21.2969 244.445 22.1394 244.627 23.0579C244.809 23.9764 244.71 24.9284 244.342 25.7899C243.845 26.9444 242.913 27.8573 241.748 28.3318C240.583 28.8063 239.278 28.8043 238.114 28.3263C236.979 27.8587 236.073 26.9663 235.588 25.8399C235.342 25.2615 235.215 24.6395 235.215 24.011C235.215 23.3826 235.342 22.7606 235.588 22.1822C235.955 21.3258 236.564 20.5953 237.342 20.0803C238.119 19.5653 239.03 19.2884 239.962 19.2834Z" fill="#1375ED"/>
<rect x="33" y="41.8291" width="45" height="45" rx="6" fill="#1375ED"/>
<rect x="88" y="41.8291" width="157" height="9" fill="#1375ED" fill-opacity="0.1"/>
<rect x="88" y="53.8291" width="157" height="9" fill="#1375ED" fill-opacity="0.1"/>
<rect x="88" y="65.8291" width="157" height="9" fill="#1375ED" fill-opacity="0.1"/>
<rect x="88" y="77.8291" width="157" height="9" fill="#1375ED" fill-opacity="0.1"/>
<path fill-rule="evenodd" clip-rule="evenodd" d="M51.0379 65.8896C50.0426 64.8156 49.2688 63.5559 48.7608 62.1826C48.2528 60.8093 48.0205 59.3493 48.0773 57.8862C48.6949 49.0867 60.9443 51.0226 63.3267 55.4635C65.7092 59.9043 65.4263 71.1709 62.3465 71.9645C61.1186 72.2812 58.5018 71.5056 55.8398 69.9004L57.5092 81.7246H47.6406L51.0379 65.8896Z" fill="#EEC7A3"/>
<path fill-rule="evenodd" clip-rule="evenodd" d="M50.2846 67.8706C49.0461 62.3606 45.5148 58.604 46.056 56.1409C46.1725 55.4012 46.5087 54.7136 47.021 54.1673C47.5332 53.6211 48.1978 53.2414 48.9285 53.0776C49.7334 49.8226 52.3285 48.438 56.714 48.9237C63.2931 49.6532 67.3079 52.3851 65.5735 58.3967C63.9798 58.3967 62.0554 57.8211 59.395 58.8079C58.5507 59.1215 57.9476 60.0933 57.5857 61.7233H56.3818C55.2145 59.7885 54.0632 59.0777 52.9278 59.5908C51.7923 60.104 51.5344 61.3496 52.1539 63.3277L51.5618 67.8706H50.2846Z" fill="#191847"/>
<path d="M229.521 68.4721L221.063 72.23C220.193 72.6167 219.625 73.4867 219.625 74.4413V80.1204C219.625 86.8267 224.265 93.0979 230.5 94.6204C236.735 93.0979 241.375 86.8267 241.375 80.1204V74.4413C241.375 73.4867 240.807 72.6167 239.937 72.23L231.479 68.4721C230.863 68.1942 230.137 68.1942 229.521 68.4721ZM227.225 86.5125L224.096 83.3829C223.984 83.2711 223.895 83.1383 223.835 82.9921C223.774 82.8459 223.743 82.6893 223.743 82.5311C223.743 82.3729 223.774 82.2162 223.835 82.07C223.895 81.9239 223.984 81.7911 224.096 81.6792C224.208 81.5673 224.341 81.4786 224.487 81.418C224.633 81.3575 224.79 81.3263 224.948 81.3263C225.106 81.3263 225.263 81.3575 225.409 81.418C225.555 81.4786 225.688 81.5673 225.8 81.6792L228.083 83.9509L235.188 76.8459C235.3 76.734 235.433 76.6453 235.579 76.5847C235.725 76.5242 235.882 76.493 236.04 76.493C236.198 76.493 236.355 76.5242 236.501 76.5847C236.647 76.6453 236.78 76.734 236.892 76.8459C237.004 76.9577 237.093 77.0905 237.153 77.2367C237.214 77.3829 237.245 77.5395 237.245 77.6977C237.245 77.8559 237.214 78.0126 237.153 78.1588C237.093 78.3049 237.004 78.4377 236.892 78.5496L228.929 86.5125C228.817 86.6245 228.685 86.7134 228.538 86.774C228.392 86.8347 228.236 86.8659 228.077 86.8659C227.919 86.8659 227.762 86.8347 227.616 86.774C227.47 86.7134 227.337 86.6245 227.225 86.5125Z" fill="#1375ED"/>
<defs>
<filter id="filter0_d_740_2453" x="0" y="0.829102" width="291" height="127" filterUnits="userSpaceOnUse" color-interpolation-filters="sRGB">
<feFlood flood-opacity="0" result="BackgroundImageFix"/>
<feColorMatrix in="SourceAlpha" type="matrix" values="0 0 0 0 0 0 0 0 0 0 0 0 0 0 0 0 0 0 127 0" result="hardAlpha"/>
<feOffset dx="6" dy="6"/>
<feGaussianBlur stdDeviation="8"/>
<feComposite in2="hardAlpha" operator="out"/>
<feColorMatrix type="matrix" values="0 0 0 0 0 0 0 0 0 0 0 0 0 0 0 0 0 0 0.08 0"/>
<feBlend mode="normal" in2="BackgroundImageFix" result="effect1_dropShadow_740_2453"/>
<feBlend mode="normal" in="SourceGraphic" in2="effect1_dropShadow_740_2453" result="shape"/>
</filter>
</defs>
</svg>
